<mxfile host="app.diagrams.net" modified="2024-03-27T09:25:50.978Z" agent="Mozilla/5.0 (Windows NT 10.0; Win64; x64) AppleWebKit/537.36 (KHTML, like Gecko) Chrome/123.0.0.0 Safari/537.36" etag="qrgjn1xb6D9uKcopTmLP" version="24.2.0" type="device">
  <diagram name="StrÃ¡nka-1" id="uw5GX_Gqzz2MoRXVGn6Y">
    <mxGraphModel dx="2350" dy="1896" grid="1" gridSize="10" guides="1" tooltips="1" connect="1" arrows="1" fold="1" page="1" pageScale="1" pageWidth="850" pageHeight="1100" math="0" shadow="0">
      <root>
        <mxCell id="0" />
        <mxCell id="1" parent="0" />
        <mxCell id="lLtn3BjToobegY7GWaLy-1" value="Inventory" style="rounded=0;whiteSpace=wrap;html=1;" parent="1" vertex="1">
          <mxGeometry x="330" y="210" width="120" height="50" as="geometry" />
        </mxCell>
        <mxCell id="lLtn3BjToobegY7GWaLy-2" value="&lt;u&gt;product_name&lt;/u&gt;" style="ellipse;whiteSpace=wrap;html=1;" parent="1" vertex="1">
          <mxGeometry x="270" y="83.75" width="90" height="30" as="geometry" />
        </mxCell>
        <mxCell id="lLtn3BjToobegY7GWaLy-5" value="&lt;u&gt;sku&lt;/u&gt;&lt;span data-lucid-content=&quot;{&amp;quot;t&amp;quot;:&amp;quot;sku PK&amp;quot;,&amp;quot;m&amp;quot;:[{&amp;quot;s&amp;quot;:0,&amp;quot;n&amp;quot;:&amp;quot;s&amp;quot;,&amp;quot;v&amp;quot;:22.22222222222222,&amp;quot;e&amp;quot;:6},{&amp;quot;s&amp;quot;:0,&amp;quot;n&amp;quot;:&amp;quot;c&amp;quot;,&amp;quot;v&amp;quot;:&amp;quot;3a414aff&amp;quot;,&amp;quot;e&amp;quot;:6}]}&quot; data-lucid-type=&quot;application/vnd.lucid.text&quot;&gt;&lt;/span&gt;" style="ellipse;whiteSpace=wrap;html=1;" parent="1" vertex="1">
          <mxGeometry x="347.5" y="110" width="85" height="30" as="geometry" />
        </mxCell>
        <mxCell id="lLtn3BjToobegY7GWaLy-6" value="weight" style="ellipse;whiteSpace=wrap;html=1;" parent="1" vertex="1">
          <mxGeometry x="440" y="110" width="90" height="30" as="geometry" />
        </mxCell>
        <mxCell id="lLtn3BjToobegY7GWaLy-7" value="sale_price" style="ellipse;whiteSpace=wrap;html=1;" parent="1" vertex="1">
          <mxGeometry x="240" y="120" width="80" height="30" as="geometry" />
        </mxCell>
        <mxCell id="lLtn3BjToobegY7GWaLy-8" value="colour" style="ellipse;whiteSpace=wrap;html=1;" parent="1" vertex="1">
          <mxGeometry x="525" y="187.5" width="90" height="30" as="geometry" />
        </mxCell>
        <mxCell id="lLtn3BjToobegY7GWaLy-9" value="stack_Quatity&lt;span data-lucid-content=&quot;{&amp;quot;t&amp;quot;:&amp;quot;stack_quatity&amp;quot;,&amp;quot;m&amp;quot;:[{&amp;quot;s&amp;quot;:0,&amp;quot;n&amp;quot;:&amp;quot;c&amp;quot;,&amp;quot;v&amp;quot;:&amp;quot;3a414aff&amp;quot;,&amp;quot;e&amp;quot;:13},{&amp;quot;s&amp;quot;:0,&amp;quot;n&amp;quot;:&amp;quot;s&amp;quot;,&amp;quot;v&amp;quot;:22.22222222222222,&amp;quot;e&amp;quot;:13}]}&quot; data-lucid-type=&quot;application/vnd.lucid.text&quot;&gt;&lt;/span&gt;" style="ellipse;whiteSpace=wrap;html=1;" parent="1" vertex="1">
          <mxGeometry x="160" y="187.5" width="80" height="30" as="geometry" />
        </mxCell>
        <mxCell id="lLtn3BjToobegY7GWaLy-10" value="fixed_price" style="ellipse;whiteSpace=wrap;html=1;" parent="1" vertex="1">
          <mxGeometry x="520" y="240" width="90" height="30" as="geometry" />
        </mxCell>
        <mxCell id="lLtn3BjToobegY7GWaLy-11" value="sholesale_price" style="ellipse;whiteSpace=wrap;html=1;" parent="1" vertex="1">
          <mxGeometry x="505" y="280" width="100" height="30" as="geometry" />
        </mxCell>
        <mxCell id="lLtn3BjToobegY7GWaLy-12" value="brand" style="ellipse;whiteSpace=wrap;html=1;" parent="1" vertex="1">
          <mxGeometry x="160" y="230" width="80" height="30" as="geometry" />
        </mxCell>
        <mxCell id="lLtn3BjToobegY7GWaLy-13" value="" style="endArrow=none;html=1;rounded=0;exitX=0;exitY=0.5;exitDx=0;exitDy=0;" parent="1" source="lLtn3BjToobegY7GWaLy-8" edge="1">
          <mxGeometry width="50" height="50" relative="1" as="geometry">
            <mxPoint x="400" y="300" as="sourcePoint" />
            <mxPoint x="450" y="215" as="targetPoint" />
          </mxGeometry>
        </mxCell>
        <mxCell id="lLtn3BjToobegY7GWaLy-14" value="" style="endArrow=none;html=1;rounded=0;entryX=0.5;entryY=1;entryDx=0;entryDy=0;" parent="1" target="lLtn3BjToobegY7GWaLy-5" edge="1">
          <mxGeometry width="50" height="50" relative="1" as="geometry">
            <mxPoint x="390" y="210" as="sourcePoint" />
            <mxPoint x="440" y="160" as="targetPoint" />
          </mxGeometry>
        </mxCell>
        <mxCell id="lLtn3BjToobegY7GWaLy-15" value="" style="endArrow=none;html=1;rounded=0;entryX=0;entryY=1;entryDx=0;entryDy=0;exitX=0.75;exitY=0;exitDx=0;exitDy=0;" parent="1" source="lLtn3BjToobegY7GWaLy-1" target="lLtn3BjToobegY7GWaLy-6" edge="1">
          <mxGeometry width="50" height="50" relative="1" as="geometry">
            <mxPoint x="410" y="200" as="sourcePoint" />
            <mxPoint x="460" y="150" as="targetPoint" />
          </mxGeometry>
        </mxCell>
        <mxCell id="lLtn3BjToobegY7GWaLy-16" value="" style="endArrow=none;html=1;rounded=0;entryX=0.25;entryY=0;entryDx=0;entryDy=0;exitX=0.5;exitY=1;exitDx=0;exitDy=0;" parent="1" source="lLtn3BjToobegY7GWaLy-2" target="lLtn3BjToobegY7GWaLy-1" edge="1">
          <mxGeometry width="50" height="50" relative="1" as="geometry">
            <mxPoint x="300" y="350" as="sourcePoint" />
            <mxPoint x="350" y="300" as="targetPoint" />
          </mxGeometry>
        </mxCell>
        <mxCell id="lLtn3BjToobegY7GWaLy-17" value="" style="endArrow=none;html=1;rounded=0;entryX=0;entryY=0;entryDx=0;entryDy=0;exitX=0.5;exitY=1;exitDx=0;exitDy=0;" parent="1" source="lLtn3BjToobegY7GWaLy-7" target="lLtn3BjToobegY7GWaLy-1" edge="1">
          <mxGeometry width="50" height="50" relative="1" as="geometry">
            <mxPoint x="270" y="330" as="sourcePoint" />
            <mxPoint x="320" y="280" as="targetPoint" />
          </mxGeometry>
        </mxCell>
        <mxCell id="lLtn3BjToobegY7GWaLy-18" value="" style="endArrow=none;html=1;rounded=0;entryX=0;entryY=0.5;entryDx=0;entryDy=0;exitX=1;exitY=0.5;exitDx=0;exitDy=0;" parent="1" source="lLtn3BjToobegY7GWaLy-9" target="lLtn3BjToobegY7GWaLy-1" edge="1">
          <mxGeometry width="50" height="50" relative="1" as="geometry">
            <mxPoint x="270" y="360" as="sourcePoint" />
            <mxPoint x="320" y="310" as="targetPoint" />
          </mxGeometry>
        </mxCell>
        <mxCell id="lLtn3BjToobegY7GWaLy-19" value="" style="endArrow=none;html=1;rounded=0;entryX=1;entryY=0.75;entryDx=0;entryDy=0;exitX=0;exitY=0.5;exitDx=0;exitDy=0;" parent="1" source="lLtn3BjToobegY7GWaLy-10" target="lLtn3BjToobegY7GWaLy-1" edge="1">
          <mxGeometry width="50" height="50" relative="1" as="geometry">
            <mxPoint x="410" y="350" as="sourcePoint" />
            <mxPoint x="460" y="300" as="targetPoint" />
          </mxGeometry>
        </mxCell>
        <mxCell id="lLtn3BjToobegY7GWaLy-20" value="" style="endArrow=none;html=1;rounded=0;entryX=0;entryY=0.75;entryDx=0;entryDy=0;exitX=1;exitY=0.5;exitDx=0;exitDy=0;" parent="1" source="lLtn3BjToobegY7GWaLy-12" target="lLtn3BjToobegY7GWaLy-1" edge="1">
          <mxGeometry width="50" height="50" relative="1" as="geometry">
            <mxPoint x="260" y="330" as="sourcePoint" />
            <mxPoint x="310" y="280" as="targetPoint" />
          </mxGeometry>
        </mxCell>
        <mxCell id="lLtn3BjToobegY7GWaLy-21" value="" style="endArrow=none;html=1;rounded=0;entryX=1;entryY=1;entryDx=0;entryDy=0;exitX=0;exitY=0.5;exitDx=0;exitDy=0;" parent="1" source="lLtn3BjToobegY7GWaLy-11" target="lLtn3BjToobegY7GWaLy-1" edge="1">
          <mxGeometry width="50" height="50" relative="1" as="geometry">
            <mxPoint x="460" y="370" as="sourcePoint" />
            <mxPoint x="510" y="320" as="targetPoint" />
          </mxGeometry>
        </mxCell>
        <mxCell id="lLtn3BjToobegY7GWaLy-23" value="brand" style="ellipse;whiteSpace=wrap;html=1;" parent="1" vertex="1">
          <mxGeometry x="230" y="280" width="80" height="30" as="geometry" />
        </mxCell>
        <mxCell id="lLtn3BjToobegY7GWaLy-24" value="" style="endArrow=none;html=1;rounded=0;entryX=0.25;entryY=1;entryDx=0;entryDy=0;exitX=1;exitY=0;exitDx=0;exitDy=0;" parent="1" source="lLtn3BjToobegY7GWaLy-23" target="lLtn3BjToobegY7GWaLy-1" edge="1">
          <mxGeometry width="50" height="50" relative="1" as="geometry">
            <mxPoint x="280" y="340" as="sourcePoint" />
            <mxPoint x="330" y="290" as="targetPoint" />
          </mxGeometry>
        </mxCell>
        <mxCell id="lLtn3BjToobegY7GWaLy-25" value="Product" style="rounded=0;whiteSpace=wrap;html=1;" parent="1" vertex="1">
          <mxGeometry x="520" y="327.5" width="120" height="50" as="geometry" />
        </mxCell>
        <mxCell id="lLtn3BjToobegY7GWaLy-26" value="&lt;u&gt;product_name&lt;/u&gt;" style="ellipse;whiteSpace=wrap;html=1;" parent="1" vertex="1">
          <mxGeometry x="690" y="290" width="100" height="30" as="geometry" />
        </mxCell>
        <mxCell id="lLtn3BjToobegY7GWaLy-27" value="description" style="ellipse;whiteSpace=wrap;html=1;" parent="1" vertex="1">
          <mxGeometry x="690" y="370" width="100" height="30" as="geometry" />
        </mxCell>
        <mxCell id="lLtn3BjToobegY7GWaLy-28" value="" style="endArrow=none;html=1;rounded=0;entryX=0;entryY=0.5;entryDx=0;entryDy=0;exitX=1;exitY=0;exitDx=0;exitDy=0;" parent="1" source="lLtn3BjToobegY7GWaLy-25" target="lLtn3BjToobegY7GWaLy-26" edge="1">
          <mxGeometry width="50" height="50" relative="1" as="geometry">
            <mxPoint x="400" y="250" as="sourcePoint" />
            <mxPoint x="450" y="200" as="targetPoint" />
            <Array as="points" />
          </mxGeometry>
        </mxCell>
        <mxCell id="lLtn3BjToobegY7GWaLy-29" value="" style="endArrow=none;html=1;rounded=0;entryX=1;entryY=1;entryDx=0;entryDy=0;exitX=0;exitY=0.5;exitDx=0;exitDy=0;" parent="1" source="lLtn3BjToobegY7GWaLy-27" target="lLtn3BjToobegY7GWaLy-25" edge="1">
          <mxGeometry width="50" height="50" relative="1" as="geometry">
            <mxPoint x="600" y="430" as="sourcePoint" />
            <mxPoint x="650" y="380" as="targetPoint" />
          </mxGeometry>
        </mxCell>
        <mxCell id="lLtn3BjToobegY7GWaLy-30" value="Colour" style="rounded=0;whiteSpace=wrap;html=1;" parent="1" vertex="1">
          <mxGeometry x="250" y="445" width="120" height="50" as="geometry" />
        </mxCell>
        <mxCell id="lLtn3BjToobegY7GWaLy-31" value="colour" style="ellipse;whiteSpace=wrap;html=1;" parent="1" vertex="1">
          <mxGeometry x="410" y="495" width="100" height="30" as="geometry" />
        </mxCell>
        <mxCell id="lLtn3BjToobegY7GWaLy-32" value="" style="endArrow=none;html=1;rounded=0;exitX=1;exitY=0;exitDx=0;exitDy=0;entryX=0;entryY=0.5;entryDx=0;entryDy=0;" parent="1" source="lLtn3BjToobegY7GWaLy-30" target="lLtn3BjToobegY7GWaLy-34" edge="1">
          <mxGeometry width="50" height="50" relative="1" as="geometry">
            <mxPoint x="120" y="395" as="sourcePoint" />
            <mxPoint x="370" y="410" as="targetPoint" />
            <Array as="points" />
          </mxGeometry>
        </mxCell>
        <mxCell id="lLtn3BjToobegY7GWaLy-33" value="" style="endArrow=none;html=1;rounded=0;entryX=1;entryY=1;entryDx=0;entryDy=0;exitX=0;exitY=0.5;exitDx=0;exitDy=0;" parent="1" source="lLtn3BjToobegY7GWaLy-31" target="lLtn3BjToobegY7GWaLy-30" edge="1">
          <mxGeometry width="50" height="50" relative="1" as="geometry">
            <mxPoint x="320" y="575" as="sourcePoint" />
            <mxPoint x="370" y="525" as="targetPoint" />
          </mxGeometry>
        </mxCell>
        <mxCell id="lLtn3BjToobegY7GWaLy-34" value="&lt;u&gt;colour_id&lt;/u&gt;" style="ellipse;whiteSpace=wrap;html=1;" parent="1" vertex="1">
          <mxGeometry x="410" y="415" width="100" height="30" as="geometry" />
        </mxCell>
        <mxCell id="lLtn3BjToobegY7GWaLy-35" value="Size" style="rounded=0;whiteSpace=wrap;html=1;" parent="1" vertex="1">
          <mxGeometry x="-20" y="350" width="120" height="50" as="geometry" />
        </mxCell>
        <mxCell id="lLtn3BjToobegY7GWaLy-36" value="sku" style="ellipse;whiteSpace=wrap;html=1;" parent="1" vertex="1">
          <mxGeometry x="-180" y="400" width="100" height="30" as="geometry" />
        </mxCell>
        <mxCell id="lLtn3BjToobegY7GWaLy-37" value="" style="endArrow=none;html=1;rounded=0;exitX=0;exitY=0;exitDx=0;exitDy=0;entryX=1;entryY=0.5;entryDx=0;entryDy=0;" parent="1" source="lLtn3BjToobegY7GWaLy-35" target="lLtn3BjToobegY7GWaLy-39" edge="1">
          <mxGeometry width="50" height="50" relative="1" as="geometry">
            <mxPoint x="-90" y="300" as="sourcePoint" />
            <mxPoint x="160" y="315" as="targetPoint" />
            <Array as="points" />
          </mxGeometry>
        </mxCell>
        <mxCell id="lLtn3BjToobegY7GWaLy-38" value="" style="endArrow=none;html=1;rounded=0;entryX=0;entryY=1;entryDx=0;entryDy=0;exitX=1;exitY=0.5;exitDx=0;exitDy=0;" parent="1" source="lLtn3BjToobegY7GWaLy-36" target="lLtn3BjToobegY7GWaLy-35" edge="1">
          <mxGeometry width="50" height="50" relative="1" as="geometry">
            <mxPoint x="110" y="480" as="sourcePoint" />
            <mxPoint x="160" y="430" as="targetPoint" />
          </mxGeometry>
        </mxCell>
        <mxCell id="lLtn3BjToobegY7GWaLy-39" value="&lt;u&gt;size_id&lt;/u&gt;" style="ellipse;whiteSpace=wrap;html=1;" parent="1" vertex="1">
          <mxGeometry x="-180" y="322.5" width="100" height="30" as="geometry" />
        </mxCell>
        <mxCell id="lLtn3BjToobegY7GWaLy-40" value="Catagory" style="rounded=0;whiteSpace=wrap;html=1;" parent="1" vertex="1">
          <mxGeometry x="520" y="520" width="120" height="50" as="geometry" />
        </mxCell>
        <mxCell id="lLtn3BjToobegY7GWaLy-41" value="catagory_name" style="ellipse;whiteSpace=wrap;html=1;" parent="1" vertex="1">
          <mxGeometry x="690" y="570" width="100" height="30" as="geometry" />
        </mxCell>
        <mxCell id="lLtn3BjToobegY7GWaLy-42" value="" style="endArrow=none;html=1;rounded=0;exitX=1;exitY=0;exitDx=0;exitDy=0;entryX=0;entryY=0.5;entryDx=0;entryDy=0;" parent="1" source="lLtn3BjToobegY7GWaLy-40" target="lLtn3BjToobegY7GWaLy-44" edge="1">
          <mxGeometry width="50" height="50" relative="1" as="geometry">
            <mxPoint x="400" y="435" as="sourcePoint" />
            <mxPoint x="650" y="450" as="targetPoint" />
            <Array as="points" />
          </mxGeometry>
        </mxCell>
        <mxCell id="lLtn3BjToobegY7GWaLy-43" value="" style="endArrow=none;html=1;rounded=0;entryX=1;entryY=1;entryDx=0;entryDy=0;exitX=0;exitY=0.5;exitDx=0;exitDy=0;" parent="1" source="lLtn3BjToobegY7GWaLy-41" target="lLtn3BjToobegY7GWaLy-40" edge="1">
          <mxGeometry width="50" height="50" relative="1" as="geometry">
            <mxPoint x="600" y="615" as="sourcePoint" />
            <mxPoint x="650" y="565" as="targetPoint" />
          </mxGeometry>
        </mxCell>
        <mxCell id="lLtn3BjToobegY7GWaLy-44" value="&lt;u&gt;catagory_id&lt;/u&gt;" style="ellipse;whiteSpace=wrap;html=1;" parent="1" vertex="1">
          <mxGeometry x="690" y="490" width="100" height="30" as="geometry" />
        </mxCell>
        <mxCell id="lLtn3BjToobegY7GWaLy-45" value="Media" style="rounded=0;whiteSpace=wrap;html=1;" parent="1" vertex="1">
          <mxGeometry x="70" y="460" width="120" height="50" as="geometry" />
        </mxCell>
        <mxCell id="lLtn3BjToobegY7GWaLy-46" value="&lt;u&gt;image_id&lt;/u&gt;" style="ellipse;whiteSpace=wrap;html=1;" parent="1" vertex="1">
          <mxGeometry x="80" y="570" width="100" height="30" as="geometry" />
        </mxCell>
        <mxCell id="lLtn3BjToobegY7GWaLy-47" value="" style="endArrow=none;html=1;rounded=0;entryX=0.5;entryY=0;entryDx=0;entryDy=0;exitX=0.5;exitY=1;exitDx=0;exitDy=0;" parent="1" source="lLtn3BjToobegY7GWaLy-45" target="lLtn3BjToobegY7GWaLy-46" edge="1">
          <mxGeometry width="50" height="50" relative="1" as="geometry">
            <mxPoint x="-50" y="410" as="sourcePoint" />
            <mxPoint y="360" as="targetPoint" />
            <Array as="points" />
          </mxGeometry>
        </mxCell>
        <mxCell id="lLtn3BjToobegY7GWaLy-48" value="" style="endArrow=none;html=1;rounded=0;entryX=0;entryY=1;entryDx=0;entryDy=0;exitX=0.5;exitY=0;exitDx=0;exitDy=0;" parent="1" source="lLtn3BjToobegY7GWaLy-49" target="lLtn3BjToobegY7GWaLy-45" edge="1">
          <mxGeometry width="50" height="50" relative="1" as="geometry">
            <mxPoint x="240" y="500" as="sourcePoint" />
            <mxPoint x="200" y="540" as="targetPoint" />
          </mxGeometry>
        </mxCell>
        <mxCell id="lLtn3BjToobegY7GWaLy-49" value="image" style="ellipse;whiteSpace=wrap;html=1;" parent="1" vertex="1">
          <mxGeometry x="-30" y="570" width="100" height="30" as="geometry" />
        </mxCell>
        <mxCell id="lLtn3BjToobegY7GWaLy-50" value="sku" style="ellipse;whiteSpace=wrap;html=1;" parent="1" vertex="1">
          <mxGeometry x="200" y="570" width="100" height="30" as="geometry" />
        </mxCell>
        <mxCell id="lLtn3BjToobegY7GWaLy-51" value="" style="endArrow=none;html=1;rounded=0;exitX=1;exitY=1;exitDx=0;exitDy=0;entryX=0.5;entryY=0;entryDx=0;entryDy=0;" parent="1" source="lLtn3BjToobegY7GWaLy-45" target="lLtn3BjToobegY7GWaLy-50" edge="1">
          <mxGeometry width="50" height="50" relative="1" as="geometry">
            <mxPoint x="180" y="570" as="sourcePoint" />
            <mxPoint x="230" y="520" as="targetPoint" />
          </mxGeometry>
        </mxCell>
        <mxCell id="lLtn3BjToobegY7GWaLy-53" value="Brand" style="rounded=0;whiteSpace=wrap;html=1;" parent="1" vertex="1">
          <mxGeometry x="765" y="202.5" width="120" height="50" as="geometry" />
        </mxCell>
        <mxCell id="lLtn3BjToobegY7GWaLy-54" value="brand_name" style="ellipse;whiteSpace=wrap;html=1;" parent="1" vertex="1">
          <mxGeometry x="920" y="260" width="100" height="30" as="geometry" />
        </mxCell>
        <mxCell id="lLtn3BjToobegY7GWaLy-55" value="" style="endArrow=none;html=1;rounded=0;exitX=1;exitY=0;exitDx=0;exitDy=0;entryX=0;entryY=0.5;entryDx=0;entryDy=0;" parent="1" source="lLtn3BjToobegY7GWaLy-53" target="lLtn3BjToobegY7GWaLy-57" edge="1">
          <mxGeometry width="50" height="50" relative="1" as="geometry">
            <mxPoint x="600" y="60" as="sourcePoint" />
            <mxPoint x="850" y="75" as="targetPoint" />
            <Array as="points" />
          </mxGeometry>
        </mxCell>
        <mxCell id="lLtn3BjToobegY7GWaLy-56" value="" style="endArrow=none;html=1;rounded=0;entryX=1;entryY=1;entryDx=0;entryDy=0;exitX=0;exitY=0.5;exitDx=0;exitDy=0;" parent="1" source="lLtn3BjToobegY7GWaLy-54" target="lLtn3BjToobegY7GWaLy-53" edge="1">
          <mxGeometry width="50" height="50" relative="1" as="geometry">
            <mxPoint x="800" y="240" as="sourcePoint" />
            <mxPoint x="850" y="190" as="targetPoint" />
          </mxGeometry>
        </mxCell>
        <mxCell id="lLtn3BjToobegY7GWaLy-57" value="&lt;u&gt;brand_id&lt;/u&gt;" style="ellipse;whiteSpace=wrap;html=1;" parent="1" vertex="1">
          <mxGeometry x="900" y="165" width="100" height="30" as="geometry" />
        </mxCell>
        <mxCell id="lLtn3BjToobegY7GWaLy-58" value="" style="endArrow=none;html=1;rounded=0;exitX=0.5;exitY=0;exitDx=0;exitDy=0;" parent="1" source="lLtn3BjToobegY7GWaLy-59" edge="1">
          <mxGeometry width="50" height="50" relative="1" as="geometry">
            <mxPoint x="415" y="320" as="sourcePoint" />
            <mxPoint x="435" y="260" as="targetPoint" />
            <Array as="points" />
          </mxGeometry>
        </mxCell>
        <mxCell id="lLtn3BjToobegY7GWaLy-257" value="&amp;nbsp;" style="edgeLabel;html=1;align=center;verticalAlign=middle;resizable=0;points=[];" parent="lLtn3BjToobegY7GWaLy-58" vertex="1" connectable="0">
          <mxGeometry x="0.2178" y="-8" relative="1" as="geometry">
            <mxPoint as="offset" />
          </mxGeometry>
        </mxCell>
        <mxCell id="lLtn3BjToobegY7GWaLy-59" value="has" style="rhombus;whiteSpace=wrap;html=1;" parent="1" vertex="1">
          <mxGeometry x="400" y="320" width="70" height="65" as="geometry" />
        </mxCell>
        <mxCell id="lLtn3BjToobegY7GWaLy-60" value="" style="endArrow=none;html=1;rounded=0;entryX=0;entryY=0.5;entryDx=0;entryDy=0;exitX=1;exitY=0.5;exitDx=0;exitDy=0;" parent="1" source="lLtn3BjToobegY7GWaLy-59" target="lLtn3BjToobegY7GWaLy-25" edge="1">
          <mxGeometry width="50" height="50" relative="1" as="geometry">
            <mxPoint x="450" y="340" as="sourcePoint" />
            <mxPoint x="480" y="310" as="targetPoint" />
          </mxGeometry>
        </mxCell>
        <mxCell id="lLtn3BjToobegY7GWaLy-61" value="has" style="rhombus;whiteSpace=wrap;html=1;" parent="1" vertex="1">
          <mxGeometry x="545" y="415" width="70" height="65" as="geometry" />
        </mxCell>
        <mxCell id="lLtn3BjToobegY7GWaLy-63" value="" style="endArrow=none;html=1;rounded=0;exitX=0.5;exitY=0;exitDx=0;exitDy=0;entryX=0.5;entryY=1;entryDx=0;entryDy=0;" parent="1" source="lLtn3BjToobegY7GWaLy-40" target="lLtn3BjToobegY7GWaLy-61" edge="1">
          <mxGeometry width="50" height="50" relative="1" as="geometry">
            <mxPoint x="630" y="480" as="sourcePoint" />
            <mxPoint x="680" y="430" as="targetPoint" />
          </mxGeometry>
        </mxCell>
        <mxCell id="lLtn3BjToobegY7GWaLy-65" value="" style="endArrow=none;html=1;rounded=0;exitX=1;exitY=0.5;exitDx=0;exitDy=0;" parent="1" source="lLtn3BjToobegY7GWaLy-67" edge="1">
          <mxGeometry width="50" height="50" relative="1" as="geometry">
            <mxPoint x="100" y="250" as="sourcePoint" />
            <mxPoint x="340" y="260" as="targetPoint" />
            <Array as="points">
              <mxPoint x="200" y="273" />
              <mxPoint x="270" y="260" />
            </Array>
          </mxGeometry>
        </mxCell>
        <mxCell id="lLtn3BjToobegY7GWaLy-67" value="has" style="rhombus;whiteSpace=wrap;html=1;" parent="1" vertex="1">
          <mxGeometry x="5" y="240" width="70" height="65" as="geometry" />
        </mxCell>
        <mxCell id="lLtn3BjToobegY7GWaLy-68" value="" style="endArrow=none;html=1;rounded=0;entryX=0.5;entryY=1;entryDx=0;entryDy=0;exitX=0.5;exitY=0;exitDx=0;exitDy=0;" parent="1" source="lLtn3BjToobegY7GWaLy-35" target="lLtn3BjToobegY7GWaLy-67" edge="1">
          <mxGeometry width="50" height="50" relative="1" as="geometry">
            <mxPoint x="110" y="350" as="sourcePoint" />
            <mxPoint x="160" y="300" as="targetPoint" />
          </mxGeometry>
        </mxCell>
        <mxCell id="lLtn3BjToobegY7GWaLy-70" value="has" style="rhombus;whiteSpace=wrap;html=1;" parent="1" vertex="1">
          <mxGeometry x="320" y="320" width="70" height="65" as="geometry" />
        </mxCell>
        <mxCell id="lLtn3BjToobegY7GWaLy-71" value="" style="endArrow=none;html=1;rounded=0;entryX=0.75;entryY=1;entryDx=0;entryDy=0;exitX=0.5;exitY=0;exitDx=0;exitDy=0;" parent="1" source="lLtn3BjToobegY7GWaLy-70" target="lLtn3BjToobegY7GWaLy-1" edge="1">
          <mxGeometry width="50" height="50" relative="1" as="geometry">
            <mxPoint x="370" y="310" as="sourcePoint" />
            <mxPoint x="400" y="280" as="targetPoint" />
            <Array as="points">
              <mxPoint x="400" y="300" />
            </Array>
          </mxGeometry>
        </mxCell>
        <mxCell id="lLtn3BjToobegY7GWaLy-72" value="" style="endArrow=none;html=1;rounded=0;entryX=0.5;entryY=1;entryDx=0;entryDy=0;exitX=0.874;exitY=-0.002;exitDx=0;exitDy=0;exitPerimeter=0;" parent="1" source="lLtn3BjToobegY7GWaLy-30" target="lLtn3BjToobegY7GWaLy-70" edge="1">
          <mxGeometry width="50" height="50" relative="1" as="geometry">
            <mxPoint x="260" y="420" as="sourcePoint" />
            <mxPoint x="310" y="370" as="targetPoint" />
          </mxGeometry>
        </mxCell>
        <mxCell id="lLtn3BjToobegY7GWaLy-73" value="has" style="rhombus;whiteSpace=wrap;html=1;" parent="1" vertex="1">
          <mxGeometry x="655" y="195" width="70" height="65" as="geometry" />
        </mxCell>
        <mxCell id="lLtn3BjToobegY7GWaLy-74" value="" style="endArrow=none;html=1;rounded=0;exitX=1;exitY=0.5;exitDx=0;exitDy=0;entryX=0;entryY=0.5;entryDx=0;entryDy=0;" parent="1" source="lLtn3BjToobegY7GWaLy-1" target="lLtn3BjToobegY7GWaLy-73" edge="1">
          <mxGeometry width="50" height="50" relative="1" as="geometry">
            <mxPoint x="540" y="160" as="sourcePoint" />
            <mxPoint x="590" y="110" as="targetPoint" />
            <Array as="points">
              <mxPoint x="620" y="230" />
            </Array>
          </mxGeometry>
        </mxCell>
        <mxCell id="lLtn3BjToobegY7GWaLy-75" value="" style="endArrow=none;html=1;rounded=0;entryX=0;entryY=0.5;entryDx=0;entryDy=0;exitX=1;exitY=0.5;exitDx=0;exitDy=0;" parent="1" source="lLtn3BjToobegY7GWaLy-73" target="lLtn3BjToobegY7GWaLy-53" edge="1">
          <mxGeometry width="50" height="50" relative="1" as="geometry">
            <mxPoint x="660" y="230" as="sourcePoint" />
            <mxPoint x="710" y="180" as="targetPoint" />
          </mxGeometry>
        </mxCell>
        <mxCell id="lLtn3BjToobegY7GWaLy-76" value="" style="endArrow=none;html=1;rounded=0;entryX=0.5;entryY=1;entryDx=0;entryDy=0;exitX=1;exitY=0.5;exitDx=0;exitDy=0;" parent="1" source="lLtn3BjToobegY7GWaLy-77" target="lLtn3BjToobegY7GWaLy-1" edge="1">
          <mxGeometry width="50" height="50" relative="1" as="geometry">
            <mxPoint x="220" y="380" as="sourcePoint" />
            <mxPoint x="360" y="259" as="targetPoint" />
            <Array as="points">
              <mxPoint x="290" y="399" />
              <mxPoint x="290" y="319" />
              <mxPoint x="360" y="289" />
            </Array>
          </mxGeometry>
        </mxCell>
        <mxCell id="lLtn3BjToobegY7GWaLy-77" value="has" style="rhombus;whiteSpace=wrap;html=1;" parent="1" vertex="1">
          <mxGeometry x="125" y="366" width="70" height="65" as="geometry" />
        </mxCell>
        <mxCell id="lLtn3BjToobegY7GWaLy-78" value="" style="endArrow=none;html=1;rounded=0;entryX=0.5;entryY=1;entryDx=0;entryDy=0;exitX=0.75;exitY=0;exitDx=0;exitDy=0;" parent="1" source="lLtn3BjToobegY7GWaLy-45" target="lLtn3BjToobegY7GWaLy-77" edge="1">
          <mxGeometry width="50" height="50" relative="1" as="geometry">
            <mxPoint x="-30" y="490" as="sourcePoint" />
            <mxPoint x="20" y="440" as="targetPoint" />
          </mxGeometry>
        </mxCell>
        <mxCell id="lLtn3BjToobegY7GWaLy-79" value="Seller" style="rounded=0;whiteSpace=wrap;html=1;" parent="1" vertex="1">
          <mxGeometry x="710" y="-20" width="120" height="50" as="geometry" />
        </mxCell>
        <mxCell id="lLtn3BjToobegY7GWaLy-80" value="&lt;u&gt;seller_Id&lt;/u&gt;" style="ellipse;whiteSpace=wrap;html=1;" parent="1" vertex="1">
          <mxGeometry x="695" y="-112" width="90" height="30" as="geometry" />
        </mxCell>
        <mxCell id="lLtn3BjToobegY7GWaLy-81" value="first_name" style="ellipse;whiteSpace=wrap;html=1;" parent="1" vertex="1">
          <mxGeometry x="780" y="-130" width="90" height="30" as="geometry" />
        </mxCell>
        <mxCell id="lLtn3BjToobegY7GWaLy-85" value="password" style="ellipse;whiteSpace=wrap;html=1;" parent="1" vertex="1">
          <mxGeometry x="580" y="-64" width="90" height="30" as="geometry" />
        </mxCell>
        <mxCell id="lLtn3BjToobegY7GWaLy-86" value="last_name" style="ellipse;whiteSpace=wrap;html=1;" parent="1" vertex="1">
          <mxGeometry x="845" y="-100" width="90" height="30" as="geometry" />
        </mxCell>
        <mxCell id="lLtn3BjToobegY7GWaLy-87" value="phone_number" style="ellipse;whiteSpace=wrap;html=1;" parent="1" vertex="1">
          <mxGeometry x="880" y="-64" width="90" height="30" as="geometry" />
        </mxCell>
        <mxCell id="lLtn3BjToobegY7GWaLy-88" value="accept" style="ellipse;whiteSpace=wrap;html=1;" parent="1" vertex="1">
          <mxGeometry x="580" y="-10" width="90" height="30" as="geometry" />
        </mxCell>
        <mxCell id="lLtn3BjToobegY7GWaLy-91" value="otp" style="ellipse;whiteSpace=wrap;html=1;" parent="1" vertex="1">
          <mxGeometry x="830" y="60" width="90" height="30" as="geometry" />
        </mxCell>
        <mxCell id="lLtn3BjToobegY7GWaLy-92" style="edgeStyle=orthogonalEdgeStyle;rounded=0;orthogonalLoop=1;jettySize=auto;html=1;exitX=0.5;exitY=1;exitDx=0;exitDy=0;" parent="1" source="lLtn3BjToobegY7GWaLy-89" target="lLtn3BjToobegY7GWaLy-89" edge="1">
          <mxGeometry relative="1" as="geometry" />
        </mxCell>
        <mxCell id="lLtn3BjToobegY7GWaLy-93" value="" style="endArrow=none;html=1;rounded=0;entryX=0;entryY=1;entryDx=0;entryDy=0;" parent="1" source="lLtn3BjToobegY7GWaLy-89" target="lLtn3BjToobegY7GWaLy-79" edge="1">
          <mxGeometry width="50" height="50" relative="1" as="geometry">
            <mxPoint x="500" y="100" as="sourcePoint" />
            <mxPoint x="550" y="50" as="targetPoint" />
          </mxGeometry>
        </mxCell>
        <mxCell id="lLtn3BjToobegY7GWaLy-89" value="gmail" style="ellipse;whiteSpace=wrap;html=1;" parent="1" vertex="1">
          <mxGeometry x="585" y="40" width="90" height="30" as="geometry" />
        </mxCell>
        <mxCell id="lLtn3BjToobegY7GWaLy-95" value="" style="endArrow=none;html=1;rounded=0;entryX=0;entryY=0.5;entryDx=0;entryDy=0;exitX=1;exitY=0.5;exitDx=0;exitDy=0;" parent="1" source="lLtn3BjToobegY7GWaLy-88" target="lLtn3BjToobegY7GWaLy-79" edge="1">
          <mxGeometry width="50" height="50" relative="1" as="geometry">
            <mxPoint x="500" y="100" as="sourcePoint" />
            <mxPoint x="550" y="50" as="targetPoint" />
          </mxGeometry>
        </mxCell>
        <mxCell id="lLtn3BjToobegY7GWaLy-96" value="" style="endArrow=none;html=1;rounded=0;entryX=0;entryY=0.25;entryDx=0;entryDy=0;exitX=1;exitY=1;exitDx=0;exitDy=0;" parent="1" source="lLtn3BjToobegY7GWaLy-85" target="lLtn3BjToobegY7GWaLy-79" edge="1">
          <mxGeometry width="50" height="50" relative="1" as="geometry">
            <mxPoint x="430" y="30" as="sourcePoint" />
            <mxPoint x="480" y="-20" as="targetPoint" />
          </mxGeometry>
        </mxCell>
        <mxCell id="lLtn3BjToobegY7GWaLy-97" value="" style="endArrow=none;html=1;rounded=0;entryX=0.25;entryY=0;entryDx=0;entryDy=0;" parent="1" source="lLtn3BjToobegY7GWaLy-80" target="lLtn3BjToobegY7GWaLy-79" edge="1">
          <mxGeometry width="50" height="50" relative="1" as="geometry">
            <mxPoint x="780" y="-30" as="sourcePoint" />
            <mxPoint x="830" y="-80" as="targetPoint" />
          </mxGeometry>
        </mxCell>
        <mxCell id="lLtn3BjToobegY7GWaLy-98" value="" style="endArrow=none;html=1;rounded=0;entryX=0.5;entryY=0;entryDx=0;entryDy=0;" parent="1" source="lLtn3BjToobegY7GWaLy-81" target="lLtn3BjToobegY7GWaLy-79" edge="1">
          <mxGeometry width="50" height="50" relative="1" as="geometry">
            <mxPoint x="420" y="30" as="sourcePoint" />
            <mxPoint x="470" y="-20" as="targetPoint" />
          </mxGeometry>
        </mxCell>
        <mxCell id="lLtn3BjToobegY7GWaLy-99" value="" style="endArrow=none;html=1;rounded=0;exitX=0.75;exitY=0;exitDx=0;exitDy=0;entryX=0;entryY=1;entryDx=0;entryDy=0;" parent="1" source="lLtn3BjToobegY7GWaLy-79" target="lLtn3BjToobegY7GWaLy-86" edge="1">
          <mxGeometry width="50" height="50" relative="1" as="geometry">
            <mxPoint x="960" y="10" as="sourcePoint" />
            <mxPoint x="1010" y="-40" as="targetPoint" />
          </mxGeometry>
        </mxCell>
        <mxCell id="lLtn3BjToobegY7GWaLy-100" value="" style="endArrow=none;html=1;rounded=0;entryX=0;entryY=1;entryDx=0;entryDy=0;exitX=1;exitY=0;exitDx=0;exitDy=0;" parent="1" source="lLtn3BjToobegY7GWaLy-79" target="lLtn3BjToobegY7GWaLy-87" edge="1">
          <mxGeometry width="50" height="50" relative="1" as="geometry">
            <mxPoint x="820" y="50" as="sourcePoint" />
            <mxPoint x="870" as="targetPoint" />
          </mxGeometry>
        </mxCell>
        <mxCell id="lLtn3BjToobegY7GWaLy-101" value="" style="endArrow=none;html=1;rounded=0;exitX=1;exitY=0.5;exitDx=0;exitDy=0;entryX=0;entryY=0.5;entryDx=0;entryDy=0;" parent="1" source="lLtn3BjToobegY7GWaLy-79" target="lLtn3BjToobegY7GWaLy-107" edge="1">
          <mxGeometry width="50" height="50" relative="1" as="geometry">
            <mxPoint x="1040" y="90" as="sourcePoint" />
            <mxPoint x="920" y="5" as="targetPoint" />
          </mxGeometry>
        </mxCell>
        <mxCell id="lLtn3BjToobegY7GWaLy-102" value="first_name" style="rounded=0;whiteSpace=wrap;html=1;" parent="1" vertex="1">
          <mxGeometry x="1030" y="-20" width="120" height="50" as="geometry" />
        </mxCell>
        <mxCell id="lLtn3BjToobegY7GWaLy-103" value="name" style="ellipse;whiteSpace=wrap;html=1;" parent="1" vertex="1">
          <mxGeometry x="1180" y="30" width="100" height="30" as="geometry" />
        </mxCell>
        <mxCell id="lLtn3BjToobegY7GWaLy-104" value="" style="endArrow=none;html=1;rounded=0;exitX=1;exitY=0;exitDx=0;exitDy=0;entryX=0;entryY=0.5;entryDx=0;entryDy=0;" parent="1" source="lLtn3BjToobegY7GWaLy-102" target="lLtn3BjToobegY7GWaLy-106" edge="1">
          <mxGeometry width="50" height="50" relative="1" as="geometry">
            <mxPoint x="930" y="-107.5" as="sourcePoint" />
            <mxPoint x="1180" y="-92.5" as="targetPoint" />
            <Array as="points" />
          </mxGeometry>
        </mxCell>
        <mxCell id="lLtn3BjToobegY7GWaLy-105" value="" style="endArrow=none;html=1;rounded=0;entryX=1;entryY=1;entryDx=0;entryDy=0;exitX=0;exitY=0.5;exitDx=0;exitDy=0;" parent="1" source="lLtn3BjToobegY7GWaLy-103" target="lLtn3BjToobegY7GWaLy-102" edge="1">
          <mxGeometry width="50" height="50" relative="1" as="geometry">
            <mxPoint x="1130" y="72.5" as="sourcePoint" />
            <mxPoint x="1180" y="22.5" as="targetPoint" />
          </mxGeometry>
        </mxCell>
        <mxCell id="lLtn3BjToobegY7GWaLy-106" value="&lt;u&gt;id&lt;/u&gt;" style="ellipse;whiteSpace=wrap;html=1;" parent="1" vertex="1">
          <mxGeometry x="1180" y="-53.75" width="100" height="30" as="geometry" />
        </mxCell>
        <mxCell id="lLtn3BjToobegY7GWaLy-107" value="has" style="rhombus;whiteSpace=wrap;html=1;" parent="1" vertex="1">
          <mxGeometry x="900" y="-23.75" width="60" height="57.5" as="geometry" />
        </mxCell>
        <mxCell id="lLtn3BjToobegY7GWaLy-109" value="" style="endArrow=none;html=1;rounded=0;entryX=0.75;entryY=1;entryDx=0;entryDy=0;exitX=0;exitY=0;exitDx=0;exitDy=0;" parent="1" source="lLtn3BjToobegY7GWaLy-91" target="lLtn3BjToobegY7GWaLy-79" edge="1">
          <mxGeometry width="50" height="50" relative="1" as="geometry">
            <mxPoint x="730" y="80" as="sourcePoint" />
            <mxPoint x="800" y="60" as="targetPoint" />
            <Array as="points" />
          </mxGeometry>
        </mxCell>
        <mxCell id="lLtn3BjToobegY7GWaLy-110" value="" style="endArrow=none;html=1;rounded=0;exitX=1;exitY=0.5;exitDx=0;exitDy=0;entryX=0;entryY=0.5;entryDx=0;entryDy=0;" parent="1" source="lLtn3BjToobegY7GWaLy-107" target="lLtn3BjToobegY7GWaLy-102" edge="1">
          <mxGeometry width="50" height="50" relative="1" as="geometry">
            <mxPoint x="990" y="60" as="sourcePoint" />
            <mxPoint x="1040" y="10" as="targetPoint" />
          </mxGeometry>
        </mxCell>
        <mxCell id="lLtn3BjToobegY7GWaLy-111" value="Customer" style="rounded=0;whiteSpace=wrap;html=1;" parent="1" vertex="1">
          <mxGeometry x="-10" y="-31.25" width="120" height="50" as="geometry" />
        </mxCell>
        <mxCell id="lLtn3BjToobegY7GWaLy-112" value="&lt;u&gt;seller_Id&lt;/u&gt;" style="ellipse;whiteSpace=wrap;html=1;" parent="1" vertex="1">
          <mxGeometry x="-130" y="-93.25" width="90" height="30" as="geometry" />
        </mxCell>
        <mxCell id="lLtn3BjToobegY7GWaLy-113" value="first_name" style="ellipse;whiteSpace=wrap;html=1;" parent="1" vertex="1">
          <mxGeometry x="-60" y="-130" width="90" height="30" as="geometry" />
        </mxCell>
        <mxCell id="lLtn3BjToobegY7GWaLy-114" value="password" style="ellipse;whiteSpace=wrap;html=1;" parent="1" vertex="1">
          <mxGeometry x="-150" y="-45.25" width="90" height="30" as="geometry" />
        </mxCell>
        <mxCell id="lLtn3BjToobegY7GWaLy-115" value="last_name" style="ellipse;whiteSpace=wrap;html=1;" parent="1" vertex="1">
          <mxGeometry x="95" y="-123.25" width="90" height="30" as="geometry" />
        </mxCell>
        <mxCell id="lLtn3BjToobegY7GWaLy-116" value="phone_number" style="ellipse;whiteSpace=wrap;html=1;" parent="1" vertex="1">
          <mxGeometry x="-15" y="70" width="90" height="30" as="geometry" />
        </mxCell>
        <mxCell id="lLtn3BjToobegY7GWaLy-117" value="otp" style="ellipse;whiteSpace=wrap;html=1;" parent="1" vertex="1">
          <mxGeometry x="-150" y="-7.5" width="90" height="30" as="geometry" />
        </mxCell>
        <mxCell id="lLtn3BjToobegY7GWaLy-118" style="edgeStyle=orthogonalEdgeStyle;rounded=0;orthogonalLoop=1;jettySize=auto;html=1;exitX=0.5;exitY=1;exitDx=0;exitDy=0;" parent="1" source="lLtn3BjToobegY7GWaLy-120" target="lLtn3BjToobegY7GWaLy-120" edge="1">
          <mxGeometry relative="1" as="geometry" />
        </mxCell>
        <mxCell id="lLtn3BjToobegY7GWaLy-119" value="" style="endArrow=none;html=1;rounded=0;entryX=0;entryY=1;entryDx=0;entryDy=0;" parent="1" source="lLtn3BjToobegY7GWaLy-120" target="lLtn3BjToobegY7GWaLy-111" edge="1">
          <mxGeometry width="50" height="50" relative="1" as="geometry">
            <mxPoint x="-220" y="88.75" as="sourcePoint" />
            <mxPoint x="-170" y="38.75" as="targetPoint" />
          </mxGeometry>
        </mxCell>
        <mxCell id="lLtn3BjToobegY7GWaLy-120" value="gmail" style="ellipse;whiteSpace=wrap;html=1;" parent="1" vertex="1">
          <mxGeometry x="-130" y="40" width="90" height="30" as="geometry" />
        </mxCell>
        <mxCell id="lLtn3BjToobegY7GWaLy-121" value="" style="endArrow=none;html=1;rounded=0;entryX=0;entryY=0.5;entryDx=0;entryDy=0;exitX=1;exitY=0.5;exitDx=0;exitDy=0;" parent="1" source="lLtn3BjToobegY7GWaLy-117" target="lLtn3BjToobegY7GWaLy-111" edge="1">
          <mxGeometry width="50" height="50" relative="1" as="geometry">
            <mxPoint x="-220" y="88.75" as="sourcePoint" />
            <mxPoint x="-170" y="38.75" as="targetPoint" />
          </mxGeometry>
        </mxCell>
        <mxCell id="lLtn3BjToobegY7GWaLy-122" value="" style="endArrow=none;html=1;rounded=0;entryX=0;entryY=0;entryDx=0;entryDy=0;exitX=1;exitY=0.5;exitDx=0;exitDy=0;" parent="1" source="lLtn3BjToobegY7GWaLy-114" target="lLtn3BjToobegY7GWaLy-111" edge="1">
          <mxGeometry width="50" height="50" relative="1" as="geometry">
            <mxPoint x="-290" y="18.75" as="sourcePoint" />
            <mxPoint x="-240" y="-31.25" as="targetPoint" />
          </mxGeometry>
        </mxCell>
        <mxCell id="lLtn3BjToobegY7GWaLy-123" value="" style="endArrow=none;html=1;rounded=0;entryX=0.25;entryY=0;entryDx=0;entryDy=0;" parent="1" source="lLtn3BjToobegY7GWaLy-112" target="lLtn3BjToobegY7GWaLy-111" edge="1">
          <mxGeometry width="50" height="50" relative="1" as="geometry">
            <mxPoint x="60" y="-41.25" as="sourcePoint" />
            <mxPoint x="110" y="-91.25" as="targetPoint" />
          </mxGeometry>
        </mxCell>
        <mxCell id="lLtn3BjToobegY7GWaLy-124" value="" style="endArrow=none;html=1;rounded=0;entryX=0.5;entryY=0;entryDx=0;entryDy=0;" parent="1" source="lLtn3BjToobegY7GWaLy-113" target="lLtn3BjToobegY7GWaLy-111" edge="1">
          <mxGeometry width="50" height="50" relative="1" as="geometry">
            <mxPoint x="-300" y="18.75" as="sourcePoint" />
            <mxPoint x="-250" y="-31.25" as="targetPoint" />
          </mxGeometry>
        </mxCell>
        <mxCell id="lLtn3BjToobegY7GWaLy-125" value="" style="endArrow=none;html=1;rounded=0;entryX=0.5;entryY=1;entryDx=0;entryDy=0;exitX=0.75;exitY=0;exitDx=0;exitDy=0;" parent="1" source="lLtn3BjToobegY7GWaLy-111" target="lLtn3BjToobegY7GWaLy-115" edge="1">
          <mxGeometry width="50" height="50" relative="1" as="geometry">
            <mxPoint x="80" y="-40" as="sourcePoint" />
            <mxPoint x="290" y="-51.25" as="targetPoint" />
          </mxGeometry>
        </mxCell>
        <mxCell id="lLtn3BjToobegY7GWaLy-126" value="" style="endArrow=none;html=1;rounded=0;entryX=0.5;entryY=0;entryDx=0;entryDy=0;exitX=0.5;exitY=1;exitDx=0;exitDy=0;" parent="1" source="lLtn3BjToobegY7GWaLy-111" target="lLtn3BjToobegY7GWaLy-116" edge="1">
          <mxGeometry width="50" height="50" relative="1" as="geometry">
            <mxPoint x="100" y="38.75" as="sourcePoint" />
            <mxPoint x="150" y="-11.25" as="targetPoint" />
          </mxGeometry>
        </mxCell>
        <mxCell id="lLtn3BjToobegY7GWaLy-127" value="" style="endArrow=none;html=1;rounded=0;exitX=1;exitY=0;exitDx=0;exitDy=0;entryX=0;entryY=1;entryDx=0;entryDy=0;" parent="1" source="lLtn3BjToobegY7GWaLy-111" target="lLtn3BjToobegY7GWaLy-133" edge="1">
          <mxGeometry width="50" height="50" relative="1" as="geometry">
            <mxPoint x="320" y="78.75" as="sourcePoint" />
            <mxPoint x="200" y="-6.25" as="targetPoint" />
          </mxGeometry>
        </mxCell>
        <mxCell id="lLtn3BjToobegY7GWaLy-128" value="first_name" style="rounded=0;whiteSpace=wrap;html=1;" parent="1" vertex="1">
          <mxGeometry x="195" y="-172" width="120" height="50" as="geometry" />
        </mxCell>
        <mxCell id="lLtn3BjToobegY7GWaLy-129" value="name" style="ellipse;whiteSpace=wrap;html=1;" parent="1" vertex="1">
          <mxGeometry x="120" y="-227" width="100" height="28" as="geometry" />
        </mxCell>
        <mxCell id="lLtn3BjToobegY7GWaLy-130" value="" style="endArrow=none;html=1;rounded=0;exitX=0.5;exitY=0;exitDx=0;exitDy=0;entryX=0.5;entryY=1;entryDx=0;entryDy=0;" parent="1" source="lLtn3BjToobegY7GWaLy-128" target="lLtn3BjToobegY7GWaLy-132" edge="1">
          <mxGeometry width="50" height="50" relative="1" as="geometry">
            <mxPoint x="210" y="-118.75" as="sourcePoint" />
            <mxPoint x="460" y="-103.75" as="targetPoint" />
            <Array as="points" />
          </mxGeometry>
        </mxCell>
        <mxCell id="lLtn3BjToobegY7GWaLy-131" value="" style="endArrow=none;html=1;rounded=0;entryX=0.25;entryY=0;entryDx=0;entryDy=0;exitX=1;exitY=1;exitDx=0;exitDy=0;" parent="1" source="lLtn3BjToobegY7GWaLy-129" target="lLtn3BjToobegY7GWaLy-128" edge="1">
          <mxGeometry width="50" height="50" relative="1" as="geometry">
            <mxPoint x="410" y="61.25" as="sourcePoint" />
            <mxPoint x="460" y="11.25" as="targetPoint" />
          </mxGeometry>
        </mxCell>
        <mxCell id="lLtn3BjToobegY7GWaLy-132" value="&lt;u&gt;id&lt;/u&gt;" style="ellipse;whiteSpace=wrap;html=1;" parent="1" vertex="1">
          <mxGeometry x="200" y="-252" width="100" height="30" as="geometry" />
        </mxCell>
        <mxCell id="lLtn3BjToobegY7GWaLy-133" value="has" style="rhombus;whiteSpace=wrap;html=1;" parent="1" vertex="1">
          <mxGeometry x="170" y="-88.75" width="60" height="57.5" as="geometry" />
        </mxCell>
        <mxCell id="lLtn3BjToobegY7GWaLy-135" value="" style="endArrow=none;html=1;rounded=0;entryX=0.5;entryY=1;entryDx=0;entryDy=0;" parent="1" target="lLtn3BjToobegY7GWaLy-128" edge="1">
          <mxGeometry width="50" height="50" relative="1" as="geometry">
            <mxPoint x="200" y="-90" as="sourcePoint" />
            <mxPoint x="320" y="-1.25" as="targetPoint" />
            <Array as="points" />
          </mxGeometry>
        </mxCell>
        <mxCell id="lLtn3BjToobegY7GWaLy-145" style="edgeStyle=orthogonalEdgeStyle;rounded=0;orthogonalLoop=1;jettySize=auto;html=1;exitX=0.5;exitY=1;exitDx=0;exitDy=0;" parent="1" edge="1">
          <mxGeometry relative="1" as="geometry">
            <mxPoint x="-540" y="252" as="sourcePoint" />
            <mxPoint x="-540" y="252" as="targetPoint" />
          </mxGeometry>
        </mxCell>
        <mxCell id="lLtn3BjToobegY7GWaLy-156" value="order" style="rounded=0;whiteSpace=wrap;html=1;" parent="1" vertex="1">
          <mxGeometry x="420" y="-238" width="120" height="50" as="geometry" />
        </mxCell>
        <mxCell id="lLtn3BjToobegY7GWaLy-157" value="&lt;u&gt;order_id&lt;/u&gt;" style="ellipse;whiteSpace=wrap;html=1;" parent="1" vertex="1">
          <mxGeometry x="360" y="-318" width="90" height="30" as="geometry" />
        </mxCell>
        <mxCell id="lLtn3BjToobegY7GWaLy-158" value="start_date" style="ellipse;whiteSpace=wrap;html=1;" parent="1" vertex="1">
          <mxGeometry x="290" y="-282" width="90" height="30" as="geometry" />
        </mxCell>
        <mxCell id="lLtn3BjToobegY7GWaLy-159" value="end_date" style="ellipse;whiteSpace=wrap;html=1;" parent="1" vertex="1">
          <mxGeometry x="290" y="-228" width="90" height="30" as="geometry" />
        </mxCell>
        <mxCell id="lLtn3BjToobegY7GWaLy-160" value="" style="endArrow=none;html=1;rounded=0;entryX=0;entryY=0.5;entryDx=0;entryDy=0;exitX=1;exitY=0.5;exitDx=0;exitDy=0;" parent="1" source="lLtn3BjToobegY7GWaLy-159" target="lLtn3BjToobegY7GWaLy-156" edge="1">
          <mxGeometry width="50" height="50" relative="1" as="geometry">
            <mxPoint x="210" y="-118" as="sourcePoint" />
            <mxPoint x="260" y="-168" as="targetPoint" />
          </mxGeometry>
        </mxCell>
        <mxCell id="lLtn3BjToobegY7GWaLy-161" value="" style="endArrow=none;html=1;rounded=0;entryX=0;entryY=0;entryDx=0;entryDy=0;exitX=1;exitY=0.5;exitDx=0;exitDy=0;" parent="1" source="lLtn3BjToobegY7GWaLy-158" target="lLtn3BjToobegY7GWaLy-156" edge="1">
          <mxGeometry width="50" height="50" relative="1" as="geometry">
            <mxPoint x="140" y="-188" as="sourcePoint" />
            <mxPoint x="190" y="-238" as="targetPoint" />
          </mxGeometry>
        </mxCell>
        <mxCell id="lLtn3BjToobegY7GWaLy-162" value="" style="endArrow=none;html=1;rounded=0;entryX=0.25;entryY=0;entryDx=0;entryDy=0;" parent="1" source="lLtn3BjToobegY7GWaLy-157" target="lLtn3BjToobegY7GWaLy-156" edge="1">
          <mxGeometry width="50" height="50" relative="1" as="geometry">
            <mxPoint x="490" y="-248" as="sourcePoint" />
            <mxPoint x="540" y="-298" as="targetPoint" />
          </mxGeometry>
        </mxCell>
        <mxCell id="lLtn3BjToobegY7GWaLy-163" value="" style="endArrow=none;html=1;rounded=0;exitX=1;exitY=0.5;exitDx=0;exitDy=0;entryX=0;entryY=0.5;entryDx=0;entryDy=0;" parent="1" source="lLtn3BjToobegY7GWaLy-156" target="lLtn3BjToobegY7GWaLy-164" edge="1">
          <mxGeometry width="50" height="50" relative="1" as="geometry">
            <mxPoint x="750" y="-128" as="sourcePoint" />
            <mxPoint x="630" y="-213" as="targetPoint" />
          </mxGeometry>
        </mxCell>
        <mxCell id="lLtn3BjToobegY7GWaLy-164" value="approval" style="rhombus;whiteSpace=wrap;html=1;" parent="1" vertex="1">
          <mxGeometry x="610" y="-241.75" width="70" height="61.75" as="geometry" />
        </mxCell>
        <mxCell id="lLtn3BjToobegY7GWaLy-165" value="products" style="rhombus;whiteSpace=wrap;html=1;" parent="1" vertex="1">
          <mxGeometry x="325" y="-169.5" width="60" height="57.5" as="geometry" />
        </mxCell>
        <mxCell id="lLtn3BjToobegY7GWaLy-166" value="" style="endArrow=none;html=1;rounded=0;exitX=0.5;exitY=1;exitDx=0;exitDy=0;entryX=1;entryY=0.5;entryDx=0;entryDy=0;" parent="1" source="lLtn3BjToobegY7GWaLy-156" target="lLtn3BjToobegY7GWaLy-165" edge="1">
          <mxGeometry width="50" height="50" relative="1" as="geometry">
            <mxPoint x="550" y="-203" as="sourcePoint" />
            <mxPoint x="620" y="-203" as="targetPoint" />
            <Array as="points">
              <mxPoint x="480" y="-140" />
            </Array>
          </mxGeometry>
        </mxCell>
        <mxCell id="lLtn3BjToobegY7GWaLy-167" value="" style="endArrow=none;html=1;rounded=0;exitX=0;exitY=1;exitDx=0;exitDy=0;entryX=1;entryY=0.25;entryDx=0;entryDy=0;" parent="1" source="lLtn3BjToobegY7GWaLy-165" target="lLtn3BjToobegY7GWaLy-111" edge="1">
          <mxGeometry width="50" height="50" relative="1" as="geometry">
            <mxPoint x="450" y="-128.74999999999977" as="sourcePoint" />
            <mxPoint x="130" y="-60" as="targetPoint" />
            <Array as="points">
              <mxPoint x="280" y="-80" />
              <mxPoint x="220" y="-19" />
            </Array>
          </mxGeometry>
        </mxCell>
        <mxCell id="lLtn3BjToobegY7GWaLy-168" value="" style="endArrow=none;html=1;rounded=0;exitX=0;exitY=0;exitDx=0;exitDy=0;entryX=0.5;entryY=1;entryDx=0;entryDy=0;" parent="1" source="lLtn3BjToobegY7GWaLy-79" target="lLtn3BjToobegY7GWaLy-164" edge="1">
          <mxGeometry width="50" height="50" relative="1" as="geometry">
            <mxPoint x="570" y="-183" as="sourcePoint" />
            <mxPoint x="640" y="-183" as="targetPoint" />
            <Array as="points">
              <mxPoint x="700" y="-60" />
              <mxPoint x="660" y="-100" />
            </Array>
          </mxGeometry>
        </mxCell>
        <mxCell id="lLtn3BjToobegY7GWaLy-169" value="search" style="rhombus;whiteSpace=wrap;html=1;" parent="1" vertex="1">
          <mxGeometry x="130" y="70" width="60" height="57.5" as="geometry" />
        </mxCell>
        <mxCell id="lLtn3BjToobegY7GWaLy-171" value="" style="endArrow=none;html=1;rounded=0;exitX=1;exitY=0;exitDx=0;exitDy=0;entryX=0;entryY=0.5;entryDx=0;entryDy=0;" parent="1" source="lLtn3BjToobegY7GWaLy-1" target="lLtn3BjToobegY7GWaLy-172" edge="1">
          <mxGeometry width="50" height="50" relative="1" as="geometry">
            <mxPoint x="600" y="150" as="sourcePoint" />
            <mxPoint x="570" y="130" as="targetPoint" />
            <Array as="points">
              <mxPoint x="540" y="170" />
            </Array>
          </mxGeometry>
        </mxCell>
        <mxCell id="lLtn3BjToobegY7GWaLy-172" value="Add&#39;s product" style="rhombus;whiteSpace=wrap;html=1;" parent="1" vertex="1">
          <mxGeometry x="630" y="120" width="70" height="67.5" as="geometry" />
        </mxCell>
        <mxCell id="lLtn3BjToobegY7GWaLy-174" value="" style="endArrow=none;html=1;rounded=0;entryX=0.25;entryY=1;entryDx=0;entryDy=0;exitX=1;exitY=0.5;exitDx=0;exitDy=0;" parent="1" source="lLtn3BjToobegY7GWaLy-172" target="lLtn3BjToobegY7GWaLy-79" edge="1">
          <mxGeometry width="50" height="50" relative="1" as="geometry">
            <mxPoint x="750" y="150" as="sourcePoint" />
            <mxPoint x="800" y="100" as="targetPoint" />
            <Array as="points">
              <mxPoint x="740" y="120" />
            </Array>
          </mxGeometry>
        </mxCell>
        <mxCell id="lLtn3BjToobegY7GWaLy-176" value="" style="endArrow=none;html=1;rounded=0;exitX=0.5;exitY=1;exitDx=0;exitDy=0;entryX=0;entryY=0.25;entryDx=0;entryDy=0;" parent="1" source="lLtn3BjToobegY7GWaLy-169" target="lLtn3BjToobegY7GWaLy-1" edge="1">
          <mxGeometry width="50" height="50" relative="1" as="geometry">
            <mxPoint x="319" y="155" as="sourcePoint" />
            <mxPoint x="300" y="180" as="targetPoint" />
          </mxGeometry>
        </mxCell>
        <mxCell id="lLtn3BjToobegY7GWaLy-177" value="" style="endArrow=none;html=1;rounded=0;entryX=0.5;entryY=0;entryDx=0;entryDy=0;exitX=1;exitY=1;exitDx=0;exitDy=0;" parent="1" source="lLtn3BjToobegY7GWaLy-111" target="lLtn3BjToobegY7GWaLy-169" edge="1">
          <mxGeometry width="50" height="50" relative="1" as="geometry">
            <mxPoint x="219" y="33.75" as="sourcePoint" />
            <mxPoint x="240" y="98.75" as="targetPoint" />
          </mxGeometry>
        </mxCell>
        <mxCell id="lLtn3BjToobegY7GWaLy-178" value="cart" style="rounded=0;whiteSpace=wrap;html=1;" parent="1" vertex="1">
          <mxGeometry x="-189" y="173.75" width="120" height="50" as="geometry" />
        </mxCell>
        <mxCell id="lLtn3BjToobegY7GWaLy-179" value="&lt;u&gt;cart_id&lt;/u&gt;" style="ellipse;whiteSpace=wrap;html=1;" parent="1" vertex="1">
          <mxGeometry x="-249" y="93.75" width="90" height="30" as="geometry" />
        </mxCell>
        <mxCell id="lLtn3BjToobegY7GWaLy-180" value="product_name" style="ellipse;whiteSpace=wrap;html=1;" parent="1" vertex="1">
          <mxGeometry x="-319" y="129.75" width="90" height="30" as="geometry" />
        </mxCell>
        <mxCell id="lLtn3BjToobegY7GWaLy-181" value="product_price" style="ellipse;whiteSpace=wrap;html=1;" parent="1" vertex="1">
          <mxGeometry x="-319" y="183.75" width="90" height="30" as="geometry" />
        </mxCell>
        <mxCell id="lLtn3BjToobegY7GWaLy-182" value="" style="endArrow=none;html=1;rounded=0;entryX=0;entryY=0.5;entryDx=0;entryDy=0;exitX=1;exitY=0.5;exitDx=0;exitDy=0;" parent="1" source="lLtn3BjToobegY7GWaLy-181" target="lLtn3BjToobegY7GWaLy-178" edge="1">
          <mxGeometry width="50" height="50" relative="1" as="geometry">
            <mxPoint x="-399" y="293.75" as="sourcePoint" />
            <mxPoint x="-349" y="243.75" as="targetPoint" />
          </mxGeometry>
        </mxCell>
        <mxCell id="lLtn3BjToobegY7GWaLy-183" value="" style="endArrow=none;html=1;rounded=0;entryX=0;entryY=0;entryDx=0;entryDy=0;exitX=1;exitY=0.5;exitDx=0;exitDy=0;" parent="1" source="lLtn3BjToobegY7GWaLy-180" target="lLtn3BjToobegY7GWaLy-178" edge="1">
          <mxGeometry width="50" height="50" relative="1" as="geometry">
            <mxPoint x="-469" y="223.75" as="sourcePoint" />
            <mxPoint x="-419" y="173.75" as="targetPoint" />
          </mxGeometry>
        </mxCell>
        <mxCell id="lLtn3BjToobegY7GWaLy-184" value="" style="endArrow=none;html=1;rounded=0;entryX=0.25;entryY=0;entryDx=0;entryDy=0;" parent="1" source="lLtn3BjToobegY7GWaLy-179" target="lLtn3BjToobegY7GWaLy-178" edge="1">
          <mxGeometry width="50" height="50" relative="1" as="geometry">
            <mxPoint x="-119" y="163.75" as="sourcePoint" />
            <mxPoint x="-69" y="113.75" as="targetPoint" />
          </mxGeometry>
        </mxCell>
        <mxCell id="lLtn3BjToobegY7GWaLy-185" value="product_image" style="ellipse;whiteSpace=wrap;html=1;" parent="1" vertex="1">
          <mxGeometry x="-309" y="240" width="90" height="30" as="geometry" />
        </mxCell>
        <mxCell id="lLtn3BjToobegY7GWaLy-187" value="" style="endArrow=none;html=1;rounded=0;exitX=1;exitY=0;exitDx=0;exitDy=0;entryX=0;entryY=1;entryDx=0;entryDy=0;" parent="1" source="lLtn3BjToobegY7GWaLy-185" target="lLtn3BjToobegY7GWaLy-178" edge="1">
          <mxGeometry width="50" height="50" relative="1" as="geometry">
            <mxPoint x="-179" y="300" as="sourcePoint" />
            <mxPoint x="-129" y="250" as="targetPoint" />
          </mxGeometry>
        </mxCell>
        <mxCell id="lLtn3BjToobegY7GWaLy-188" value="search" style="rhombus;whiteSpace=wrap;html=1;" parent="1" vertex="1">
          <mxGeometry x="47.5" y="127.5" width="65" height="61.25" as="geometry" />
        </mxCell>
        <mxCell id="lLtn3BjToobegY7GWaLy-191" value="" style="endArrow=none;html=1;rounded=0;entryX=0;entryY=0.25;entryDx=0;entryDy=0;exitX=1;exitY=0.5;exitDx=0;exitDy=0;" parent="1" source="lLtn3BjToobegY7GWaLy-188" target="lLtn3BjToobegY7GWaLy-1" edge="1">
          <mxGeometry width="50" height="50" relative="1" as="geometry">
            <mxPoint x="100" y="230" as="sourcePoint" />
            <mxPoint x="150" y="180" as="targetPoint" />
            <Array as="points">
              <mxPoint x="220" y="180" />
            </Array>
          </mxGeometry>
        </mxCell>
        <mxCell id="lLtn3BjToobegY7GWaLy-195" value="Notification" style="rounded=0;whiteSpace=wrap;html=1;" parent="1" vertex="1">
          <mxGeometry x="340" y="-20" width="120" height="50" as="geometry" />
        </mxCell>
        <mxCell id="lLtn3BjToobegY7GWaLy-196" value="&lt;u&gt;notification_id&lt;/u&gt;" style="ellipse;whiteSpace=wrap;html=1;" parent="1" vertex="1">
          <mxGeometry x="260" y="-61.25" width="90" height="30" as="geometry" />
        </mxCell>
        <mxCell id="lLtn3BjToobegY7GWaLy-197" value="deleverystatus" style="ellipse;whiteSpace=wrap;html=1;direction=west;" parent="1" vertex="1">
          <mxGeometry x="480" y="-45.25" width="90" height="30" as="geometry" />
        </mxCell>
        <mxCell id="lLtn3BjToobegY7GWaLy-199" value="disconnects" style="ellipse;whiteSpace=wrap;html=1;direction=west;" parent="1" vertex="1">
          <mxGeometry x="355" y="-88.75" width="90" height="30" as="geometry" />
        </mxCell>
        <mxCell id="lLtn3BjToobegY7GWaLy-200" value="" style="endArrow=none;html=1;rounded=0;entryX=0.5;entryY=1;entryDx=0;entryDy=0;exitX=0;exitY=0.25;exitDx=0;exitDy=0;" parent="1" source="lLtn3BjToobegY7GWaLy-195" target="lLtn3BjToobegY7GWaLy-196" edge="1">
          <mxGeometry width="50" height="50" relative="1" as="geometry">
            <mxPoint x="250" y="40" as="sourcePoint" />
            <mxPoint x="300" y="-10" as="targetPoint" />
          </mxGeometry>
        </mxCell>
        <mxCell id="lLtn3BjToobegY7GWaLy-202" value="" style="endArrow=none;html=1;rounded=0;entryX=0.5;entryY=0;entryDx=0;entryDy=0;exitX=0.5;exitY=0;exitDx=0;exitDy=0;" parent="1" source="lLtn3BjToobegY7GWaLy-195" target="lLtn3BjToobegY7GWaLy-199" edge="1">
          <mxGeometry width="50" height="50" relative="1" as="geometry">
            <mxPoint x="350" y="3" as="sourcePoint" />
            <mxPoint x="315" y="-21" as="targetPoint" />
          </mxGeometry>
        </mxCell>
        <mxCell id="lLtn3BjToobegY7GWaLy-203" value="" style="endArrow=none;html=1;rounded=0;entryX=1;entryY=0;entryDx=0;entryDy=0;exitX=1;exitY=0.5;exitDx=0;exitDy=0;" parent="1" source="lLtn3BjToobegY7GWaLy-195" target="lLtn3BjToobegY7GWaLy-197" edge="1">
          <mxGeometry width="50" height="50" relative="1" as="geometry">
            <mxPoint x="360" y="13" as="sourcePoint" />
            <mxPoint x="325" y="-11" as="targetPoint" />
          </mxGeometry>
        </mxCell>
        <mxCell id="lLtn3BjToobegY7GWaLy-204" value="notify" style="rhombus;whiteSpace=wrap;html=1;" parent="1" vertex="1">
          <mxGeometry x="210" y="-10" width="60" height="57.5" as="geometry" />
        </mxCell>
        <mxCell id="lLtn3BjToobegY7GWaLy-205" value="" style="rhombus;whiteSpace=wrap;html=1;" parent="1" vertex="1">
          <mxGeometry x="495" y="30" width="60" height="57.5" as="geometry" />
        </mxCell>
        <mxCell id="lLtn3BjToobegY7GWaLy-206" value="status" style="rhombus;whiteSpace=wrap;html=1;" parent="1" vertex="1">
          <mxGeometry x="510" y="-138" width="60" height="57.5" as="geometry" />
        </mxCell>
        <mxCell id="lLtn3BjToobegY7GWaLy-207" value="" style="endArrow=none;html=1;rounded=0;entryX=1;entryY=0.5;entryDx=0;entryDy=0;exitX=0;exitY=0.75;exitDx=0;exitDy=0;" parent="1" source="lLtn3BjToobegY7GWaLy-195" target="lLtn3BjToobegY7GWaLy-204" edge="1">
          <mxGeometry width="50" height="50" relative="1" as="geometry">
            <mxPoint x="350" y="3" as="sourcePoint" />
            <mxPoint x="315" y="-21" as="targetPoint" />
          </mxGeometry>
        </mxCell>
        <mxCell id="lLtn3BjToobegY7GWaLy-208" value="" style="endArrow=none;html=1;rounded=0;entryX=0;entryY=0;entryDx=0;entryDy=0;exitX=1;exitY=1;exitDx=0;exitDy=0;" parent="1" source="lLtn3BjToobegY7GWaLy-195" target="lLtn3BjToobegY7GWaLy-205" edge="1">
          <mxGeometry width="50" height="50" relative="1" as="geometry">
            <mxPoint x="350" y="28" as="sourcePoint" />
            <mxPoint x="280" y="41" as="targetPoint" />
            <Array as="points">
              <mxPoint x="480" y="44" />
            </Array>
          </mxGeometry>
        </mxCell>
        <mxCell id="lLtn3BjToobegY7GWaLy-209" value="" style="endArrow=none;html=1;rounded=0;entryX=1;entryY=0;entryDx=0;entryDy=0;exitX=1;exitY=1;exitDx=0;exitDy=0;" parent="1" source="lLtn3BjToobegY7GWaLy-205" target="lLtn3BjToobegY7GWaLy-1" edge="1">
          <mxGeometry width="50" height="50" relative="1" as="geometry">
            <mxPoint x="360" y="38" as="sourcePoint" />
            <mxPoint x="290" y="51" as="targetPoint" />
            <Array as="points">
              <mxPoint x="560" y="120" />
            </Array>
          </mxGeometry>
        </mxCell>
        <mxCell id="lLtn3BjToobegY7GWaLy-211" value="" style="endArrow=none;html=1;rounded=0;entryX=0;entryY=0.5;entryDx=0;entryDy=0;exitX=1;exitY=0.75;exitDx=0;exitDy=0;" parent="1" source="lLtn3BjToobegY7GWaLy-111" target="lLtn3BjToobegY7GWaLy-204" edge="1">
          <mxGeometry width="50" height="50" relative="1" as="geometry">
            <mxPoint x="350" y="28" as="sourcePoint" />
            <mxPoint x="280" y="41" as="targetPoint" />
          </mxGeometry>
        </mxCell>
        <mxCell id="lLtn3BjToobegY7GWaLy-212" value="" style="endArrow=none;html=1;rounded=0;entryX=0.75;entryY=0;entryDx=0;entryDy=0;exitX=0;exitY=1;exitDx=0;exitDy=0;" parent="1" source="lLtn3BjToobegY7GWaLy-206" target="lLtn3BjToobegY7GWaLy-195" edge="1">
          <mxGeometry width="50" height="50" relative="1" as="geometry">
            <mxPoint x="360" y="38" as="sourcePoint" />
            <mxPoint x="290" y="51" as="targetPoint" />
          </mxGeometry>
        </mxCell>
        <mxCell id="lLtn3BjToobegY7GWaLy-213" value="" style="endArrow=none;html=1;rounded=0;entryX=1;entryY=1;entryDx=0;entryDy=0;exitX=1;exitY=0;exitDx=0;exitDy=0;" parent="1" source="lLtn3BjToobegY7GWaLy-206" target="lLtn3BjToobegY7GWaLy-156" edge="1">
          <mxGeometry width="50" height="50" relative="1" as="geometry">
            <mxPoint x="370" y="48" as="sourcePoint" />
            <mxPoint x="300" y="61" as="targetPoint" />
            <Array as="points">
              <mxPoint x="555" y="-160" />
            </Array>
          </mxGeometry>
        </mxCell>
        <mxCell id="lLtn3BjToobegY7GWaLy-214" value="1" style="text;html=1;align=center;verticalAlign=middle;resizable=0;points=[];autosize=1;strokeColor=none;fillColor=none;" parent="1" vertex="1">
          <mxGeometry x="715" y="58" width="30" height="30" as="geometry" />
        </mxCell>
        <mxCell id="lLtn3BjToobegY7GWaLy-215" value="N" style="text;html=1;align=center;verticalAlign=middle;resizable=0;points=[];autosize=1;strokeColor=none;fillColor=none;" parent="1" vertex="1">
          <mxGeometry x="575" y="128" width="30" height="30" as="geometry" />
        </mxCell>
        <mxCell id="lLtn3BjToobegY7GWaLy-216" value="add product" style="rhombus;whiteSpace=wrap;html=1;" parent="1" vertex="1">
          <mxGeometry x="-95" y="98.5" width="65" height="61.25" as="geometry" />
        </mxCell>
        <mxCell id="lLtn3BjToobegY7GWaLy-217" value="" style="endArrow=none;html=1;rounded=0;entryX=0.167;entryY=1.025;entryDx=0;entryDy=0;exitX=1;exitY=0;exitDx=0;exitDy=0;entryPerimeter=0;" parent="1" source="lLtn3BjToobegY7GWaLy-216" target="lLtn3BjToobegY7GWaLy-111" edge="1">
          <mxGeometry width="50" height="50" relative="1" as="geometry">
            <mxPoint x="90" y="138" as="sourcePoint" />
            <mxPoint x="90" y="29" as="targetPoint" />
          </mxGeometry>
        </mxCell>
        <mxCell id="lLtn3BjToobegY7GWaLy-218" value="" style="endArrow=none;html=1;rounded=0;entryX=0.5;entryY=0;entryDx=0;entryDy=0;exitX=0;exitY=0.5;exitDx=0;exitDy=0;" parent="1" source="lLtn3BjToobegY7GWaLy-216" target="lLtn3BjToobegY7GWaLy-178" edge="1">
          <mxGeometry width="50" height="50" relative="1" as="geometry">
            <mxPoint x="100" y="148" as="sourcePoint" />
            <mxPoint x="100" y="39" as="targetPoint" />
            <Array as="points">
              <mxPoint x="-129" y="129" />
            </Array>
          </mxGeometry>
        </mxCell>
        <mxCell id="lLtn3BjToobegY7GWaLy-221" value="N" style="text;html=1;align=center;verticalAlign=middle;resizable=0;points=[];autosize=1;strokeColor=none;fillColor=none;" parent="1" vertex="1">
          <mxGeometry x="155" y="148" width="30" height="30" as="geometry" />
        </mxCell>
        <mxCell id="lLtn3BjToobegY7GWaLy-222" value="1" style="text;html=1;align=center;verticalAlign=middle;resizable=0;points=[];autosize=1;strokeColor=none;fillColor=none;" parent="1" vertex="1">
          <mxGeometry x="-55" y="58" width="30" height="30" as="geometry" />
        </mxCell>
        <mxCell id="lLtn3BjToobegY7GWaLy-223" value="N" style="text;html=1;align=center;verticalAlign=middle;resizable=0;points=[];autosize=1;strokeColor=none;fillColor=none;" parent="1" vertex="1">
          <mxGeometry x="-125" y="98" width="30" height="30" as="geometry" />
        </mxCell>
        <mxCell id="lLtn3BjToobegY7GWaLy-227" value="" style="endArrow=none;html=1;rounded=0;exitX=0.5;exitY=0;exitDx=0;exitDy=0;entryX=0.5;entryY=1;entryDx=0;entryDy=0;" parent="1" source="lLtn3BjToobegY7GWaLy-61" target="lLtn3BjToobegY7GWaLy-25" edge="1">
          <mxGeometry width="50" height="50" relative="1" as="geometry">
            <mxPoint x="640" y="460" as="sourcePoint" />
            <mxPoint x="690" y="410" as="targetPoint" />
          </mxGeometry>
        </mxCell>
        <mxCell id="lLtn3BjToobegY7GWaLy-228" value="M" style="text;html=1;align=center;verticalAlign=middle;resizable=0;points=[];autosize=1;strokeColor=none;fillColor=none;" parent="1" vertex="1">
          <mxGeometry x="575" y="378" width="30" height="30" as="geometry" />
        </mxCell>
        <mxCell id="lLtn3BjToobegY7GWaLy-229" value="N" style="text;html=1;align=center;verticalAlign=middle;resizable=0;points=[];autosize=1;strokeColor=none;fillColor=none;" parent="1" vertex="1">
          <mxGeometry x="575" y="478" width="30" height="30" as="geometry" />
        </mxCell>
        <mxCell id="lLtn3BjToobegY7GWaLy-231" value="1" style="text;html=1;align=center;verticalAlign=middle;resizable=0;points=[];autosize=1;strokeColor=none;fillColor=none;" parent="1" vertex="1">
          <mxGeometry x="105" y="28" width="30" height="30" as="geometry" />
        </mxCell>
        <mxCell id="lLtn3BjToobegY7GWaLy-232" value="N" style="text;html=1;align=center;verticalAlign=middle;resizable=0;points=[];autosize=1;strokeColor=none;fillColor=none;" parent="1" vertex="1">
          <mxGeometry x="205" y="128" width="30" height="30" as="geometry" />
        </mxCell>
        <mxCell id="lLtn3BjToobegY7GWaLy-233" value="" style="endArrow=none;html=1;rounded=0;entryX=0;entryY=1;entryDx=0;entryDy=0;exitX=1;exitY=0.5;exitDx=0;exitDy=0;" parent="1" source="lLtn3BjToobegY7GWaLy-178" target="lLtn3BjToobegY7GWaLy-188" edge="1">
          <mxGeometry width="50" height="50" relative="1" as="geometry">
            <mxPoint x="-20" y="230" as="sourcePoint" />
            <mxPoint x="30" y="180" as="targetPoint" />
            <Array as="points">
              <mxPoint y="199" />
            </Array>
          </mxGeometry>
        </mxCell>
        <mxCell id="lLtn3BjToobegY7GWaLy-234" value="M" style="text;html=1;align=center;verticalAlign=middle;resizable=0;points=[];autosize=1;strokeColor=none;fillColor=none;" parent="1" vertex="1">
          <mxGeometry x="-45" y="178" width="30" height="30" as="geometry" />
        </mxCell>
        <mxCell id="lLtn3BjToobegY7GWaLy-235" value="N" style="text;html=1;align=center;verticalAlign=middle;resizable=0;points=[];autosize=1;strokeColor=none;fillColor=none;" parent="1" vertex="1">
          <mxGeometry x="425" y="-172" width="30" height="30" as="geometry" />
        </mxCell>
        <mxCell id="lLtn3BjToobegY7GWaLy-236" value="1" style="text;html=1;align=center;verticalAlign=middle;resizable=0;points=[];autosize=1;strokeColor=none;fillColor=none;" parent="1" vertex="1">
          <mxGeometry x="265" y="-122" width="30" height="30" as="geometry" />
        </mxCell>
        <mxCell id="lLtn3BjToobegY7GWaLy-238" value="&amp;nbsp;M" style="text;html=1;align=center;verticalAlign=middle;resizable=0;points=[];autosize=1;strokeColor=none;fillColor=none;" parent="1" vertex="1">
          <mxGeometry x="640" y="-152" width="40" height="30" as="geometry" />
        </mxCell>
        <mxCell id="lLtn3BjToobegY7GWaLy-239" value="N" style="text;html=1;align=center;verticalAlign=middle;resizable=0;points=[];autosize=1;strokeColor=none;fillColor=none;" parent="1" vertex="1">
          <mxGeometry x="565" y="-242" width="30" height="30" as="geometry" />
        </mxCell>
        <mxCell id="lLtn3BjToobegY7GWaLy-240" value="1" style="text;html=1;align=center;verticalAlign=middle;resizable=0;points=[];autosize=1;strokeColor=none;fillColor=none;" parent="1" vertex="1">
          <mxGeometry x="125" y="-62" width="30" height="30" as="geometry" />
        </mxCell>
        <mxCell id="lLtn3BjToobegY7GWaLy-241" value="N" style="text;html=1;align=center;verticalAlign=middle;resizable=0;points=[];autosize=1;strokeColor=none;fillColor=none;" parent="1" vertex="1">
          <mxGeometry x="195" y="-132" width="30" height="30" as="geometry" />
        </mxCell>
        <mxCell id="lLtn3BjToobegY7GWaLy-242" value="1" style="text;html=1;align=center;verticalAlign=middle;resizable=0;points=[];autosize=1;strokeColor=none;fillColor=none;" parent="1" vertex="1">
          <mxGeometry x="145" y="-12" width="30" height="30" as="geometry" />
        </mxCell>
        <mxCell id="lLtn3BjToobegY7GWaLy-243" value="N" style="text;html=1;align=center;verticalAlign=middle;resizable=0;points=[];autosize=1;strokeColor=none;fillColor=none;" parent="1" vertex="1">
          <mxGeometry x="275" y="-12" width="30" height="30" as="geometry" />
        </mxCell>
        <mxCell id="lLtn3BjToobegY7GWaLy-244" value="1" style="text;html=1;align=center;verticalAlign=middle;resizable=0;points=[];autosize=1;strokeColor=none;fillColor=none;" parent="1" vertex="1">
          <mxGeometry x="855" y="-22" width="30" height="30" as="geometry" />
        </mxCell>
        <mxCell id="lLtn3BjToobegY7GWaLy-245" value="&lt;br&gt;N" style="text;html=1;align=center;verticalAlign=middle;resizable=0;points=[];autosize=1;strokeColor=none;fillColor=none;" parent="1" vertex="1">
          <mxGeometry x="975" y="-37" width="30" height="40" as="geometry" />
        </mxCell>
        <mxCell id="lLtn3BjToobegY7GWaLy-246" value="1" style="text;html=1;align=center;verticalAlign=middle;resizable=0;points=[];autosize=1;strokeColor=none;fillColor=none;" parent="1" vertex="1">
          <mxGeometry x="455" y="-92" width="30" height="30" as="geometry" />
        </mxCell>
        <mxCell id="lLtn3BjToobegY7GWaLy-247" value="1" style="text;html=1;align=center;verticalAlign=middle;resizable=0;points=[];autosize=1;strokeColor=none;fillColor=none;" parent="1" vertex="1">
          <mxGeometry x="525" y="-172" width="30" height="30" as="geometry" />
        </mxCell>
        <mxCell id="lLtn3BjToobegY7GWaLy-250" value="&amp;nbsp;N" style="text;html=1;align=center;verticalAlign=middle;resizable=0;points=[];autosize=1;strokeColor=none;fillColor=none;" parent="1" vertex="1">
          <mxGeometry x="540" y="78" width="40" height="30" as="geometry" />
        </mxCell>
        <mxCell id="lLtn3BjToobegY7GWaLy-251" value="M" style="text;html=1;align=center;verticalAlign=middle;resizable=0;points=[];autosize=1;strokeColor=none;fillColor=none;" parent="1" vertex="1">
          <mxGeometry x="475" y="18" width="30" height="30" as="geometry" />
        </mxCell>
        <mxCell id="lLtn3BjToobegY7GWaLy-252" value="&amp;nbsp;&lt;br&gt;&amp;nbsp;&amp;nbsp;&lt;br&gt;&amp;nbsp; &amp;nbsp; &amp;nbsp; &amp;nbsp; &amp;nbsp;1" style="text;html=1;align=center;verticalAlign=middle;resizable=0;points=[];autosize=1;strokeColor=none;fillColor=none;" parent="1" vertex="1">
          <mxGeometry x="-20" y="283" width="60" height="60" as="geometry" />
        </mxCell>
        <mxCell id="lLtn3BjToobegY7GWaLy-253" value="N" style="text;html=1;align=center;verticalAlign=middle;resizable=0;points=[];autosize=1;strokeColor=none;fillColor=none;" parent="1" vertex="1">
          <mxGeometry x="105" y="248" width="30" height="30" as="geometry" />
        </mxCell>
        <mxCell id="lLtn3BjToobegY7GWaLy-258" value="1" style="text;html=1;align=center;verticalAlign=middle;resizable=0;points=[];autosize=1;strokeColor=none;fillColor=none;" parent="1" vertex="1">
          <mxGeometry x="435" y="278" width="30" height="30" as="geometry" />
        </mxCell>
        <mxCell id="lLtn3BjToobegY7GWaLy-259" value="N" style="text;html=1;align=center;verticalAlign=middle;resizable=0;points=[];autosize=1;strokeColor=none;fillColor=none;" parent="1" vertex="1">
          <mxGeometry x="475" y="328" width="30" height="30" as="geometry" />
        </mxCell>
        <mxCell id="lLtn3BjToobegY7GWaLy-260" value="&lt;br&gt;1" style="text;html=1;align=center;verticalAlign=middle;resizable=0;points=[];autosize=1;strokeColor=none;fillColor=none;" parent="1" vertex="1">
          <mxGeometry x="725" y="183" width="30" height="40" as="geometry" />
        </mxCell>
        <mxCell id="lLtn3BjToobegY7GWaLy-261" value="&lt;br&gt;M" style="text;html=1;align=center;verticalAlign=middle;resizable=0;points=[];autosize=1;strokeColor=none;fillColor=none;" parent="1" vertex="1">
          <mxGeometry x="615" y="193" width="30" height="40" as="geometry" />
        </mxCell>
        <mxCell id="lLtn3BjToobegY7GWaLy-262" value="N" style="text;html=1;align=center;verticalAlign=middle;resizable=0;points=[];autosize=1;strokeColor=none;fillColor=none;" parent="1" vertex="1">
          <mxGeometry x="325" y="388" width="30" height="30" as="geometry" />
        </mxCell>
        <mxCell id="lLtn3BjToobegY7GWaLy-263" value="1" style="text;html=1;align=center;verticalAlign=middle;resizable=0;points=[];autosize=1;strokeColor=none;fillColor=none;" parent="1" vertex="1">
          <mxGeometry x="355" y="288" width="30" height="30" as="geometry" />
        </mxCell>
        <mxCell id="lLtn3BjToobegY7GWaLy-264" value="N" style="text;html=1;align=center;verticalAlign=middle;resizable=0;points=[];autosize=1;strokeColor=none;fillColor=none;" parent="1" vertex="1">
          <mxGeometry x="125" y="428" width="30" height="30" as="geometry" />
        </mxCell>
        <mxCell id="lLtn3BjToobegY7GWaLy-265" value="1" style="text;html=1;align=center;verticalAlign=middle;resizable=0;points=[];autosize=1;strokeColor=none;fillColor=none;" parent="1" vertex="1">
          <mxGeometry x="215" y="368" width="30" height="30" as="geometry" />
        </mxCell>
        <mxCell id="L-ztDhkG5EPIh8WO4SSl-1" value="Shipment" style="rounded=0;whiteSpace=wrap;html=1;" parent="1" vertex="1">
          <mxGeometry x="80" y="-378" width="120" height="58" as="geometry" />
        </mxCell>
        <mxCell id="L-ztDhkG5EPIh8WO4SSl-5" value="has" style="rhombus;whiteSpace=wrap;html=1;" parent="1" vertex="1">
          <mxGeometry x="470" y="-380" width="60" height="57.5" as="geometry" />
        </mxCell>
        <mxCell id="L-ztDhkG5EPIh8WO4SSl-6" value="" style="endArrow=none;html=1;rounded=0;entryX=0;entryY=0.5;entryDx=0;entryDy=0;" parent="1" target="L-ztDhkG5EPIh8WO4SSl-5" edge="1">
          <mxGeometry width="50" height="50" relative="1" as="geometry">
            <mxPoint x="200" y="-350" as="sourcePoint" />
            <mxPoint x="538" y="-268" as="targetPoint" />
            <Array as="points" />
          </mxGeometry>
        </mxCell>
        <mxCell id="L-ztDhkG5EPIh8WO4SSl-7" value="" style="endArrow=none;html=1;rounded=0;exitX=0.5;exitY=1;exitDx=0;exitDy=0;" parent="1" source="L-ztDhkG5EPIh8WO4SSl-5" edge="1">
          <mxGeometry width="50" height="50" relative="1" as="geometry">
            <mxPoint x="600" y="-290" as="sourcePoint" />
            <mxPoint x="500" y="-240" as="targetPoint" />
            <Array as="points" />
          </mxGeometry>
        </mxCell>
        <mxCell id="L-ztDhkG5EPIh8WO4SSl-8" value="N" style="text;html=1;align=center;verticalAlign=middle;resizable=0;points=[];autosize=1;strokeColor=none;fillColor=none;" parent="1" vertex="1">
          <mxGeometry x="495" y="-272" width="30" height="30" as="geometry" />
        </mxCell>
        <mxCell id="L-ztDhkG5EPIh8WO4SSl-9" value="1" style="text;html=1;align=center;verticalAlign=middle;resizable=0;points=[];autosize=1;strokeColor=none;fillColor=none;" parent="1" vertex="1">
          <mxGeometry x="450" y="-380" width="30" height="30" as="geometry" />
        </mxCell>
        <mxCell id="4dj_SRw2docza1XH2Kyc-4" value="has" style="rhombus;whiteSpace=wrap;html=1;" vertex="1" parent="1">
          <mxGeometry x="30" y="-252" width="60" height="57.5" as="geometry" />
        </mxCell>
        <mxCell id="4dj_SRw2docza1XH2Kyc-5" value="" style="endArrow=none;html=1;rounded=0;exitX=0.563;exitY=0.009;exitDx=0;exitDy=0;exitPerimeter=0;entryX=0.5;entryY=1;entryDx=0;entryDy=0;" edge="1" parent="1" source="lLtn3BjToobegY7GWaLy-111" target="4dj_SRw2docza1XH2Kyc-4">
          <mxGeometry width="50" height="50" relative="1" as="geometry">
            <mxPoint x="65" y="-31.25" as="sourcePoint" />
            <mxPoint x="58" y="-190" as="targetPoint" />
          </mxGeometry>
        </mxCell>
        <mxCell id="4dj_SRw2docza1XH2Kyc-7" value="" style="endArrow=none;html=1;rounded=0;exitX=0.5;exitY=0;exitDx=0;exitDy=0;entryX=0.5;entryY=1;entryDx=0;entryDy=0;" edge="1" parent="1" source="4dj_SRw2docza1XH2Kyc-4" target="L-ztDhkG5EPIh8WO4SSl-1">
          <mxGeometry width="50" height="50" relative="1" as="geometry">
            <mxPoint x="5" y="-238" as="sourcePoint" />
            <mxPoint x="140" y="-320" as="targetPoint" />
            <Array as="points" />
          </mxGeometry>
        </mxCell>
        <mxCell id="4dj_SRw2docza1XH2Kyc-8" value="1" style="text;html=1;align=center;verticalAlign=middle;resizable=0;points=[];autosize=1;strokeColor=none;fillColor=none;" vertex="1" parent="1">
          <mxGeometry x="50" y="-64" width="30" height="30" as="geometry" />
        </mxCell>
        <mxCell id="4dj_SRw2docza1XH2Kyc-9" value="N" style="text;html=1;align=center;verticalAlign=middle;resizable=0;points=[];autosize=1;strokeColor=none;fillColor=none;" vertex="1" parent="1">
          <mxGeometry x="82.5" y="-271.75" width="30" height="30" as="geometry" />
        </mxCell>
        <mxCell id="4dj_SRw2docza1XH2Kyc-10" value="address" style="ellipse;whiteSpace=wrap;html=1;" vertex="1" parent="1">
          <mxGeometry x="-30" y="-378" width="90" height="30" as="geometry" />
        </mxCell>
        <mxCell id="4dj_SRw2docza1XH2Kyc-11" value="last_name" style="ellipse;whiteSpace=wrap;html=1;" vertex="1" parent="1">
          <mxGeometry x="175" y="-302" width="90" height="30" as="geometry" />
        </mxCell>
        <mxCell id="4dj_SRw2docza1XH2Kyc-12" value="shipment_date" style="ellipse;whiteSpace=wrap;html=1;" vertex="1" parent="1">
          <mxGeometry x="-40" y="-332" width="90" height="30" as="geometry" />
        </mxCell>
        <mxCell id="4dj_SRw2docza1XH2Kyc-13" value="id" style="ellipse;whiteSpace=wrap;html=1;" vertex="1" parent="1">
          <mxGeometry x="-15" y="-290" width="90" height="30" as="geometry" />
        </mxCell>
        <mxCell id="4dj_SRw2docza1XH2Kyc-14" value="state" style="ellipse;whiteSpace=wrap;html=1;" vertex="1" parent="1">
          <mxGeometry x="105" y="-450" width="90" height="30" as="geometry" />
        </mxCell>
        <mxCell id="4dj_SRw2docza1XH2Kyc-15" value="country" style="ellipse;whiteSpace=wrap;html=1;" vertex="1" parent="1">
          <mxGeometry x="225" y="-450" width="90" height="30" as="geometry" />
        </mxCell>
        <mxCell id="4dj_SRw2docza1XH2Kyc-16" value="" style="endArrow=none;html=1;rounded=0;entryX=0;entryY=0.75;entryDx=0;entryDy=0;exitX=1;exitY=0.5;exitDx=0;exitDy=0;" edge="1" parent="1" source="4dj_SRw2docza1XH2Kyc-12" target="L-ztDhkG5EPIh8WO4SSl-1">
          <mxGeometry width="50" height="50" relative="1" as="geometry">
            <mxPoint x="40" y="-360" as="sourcePoint" />
            <mxPoint x="82.5" y="-328" as="targetPoint" />
            <Array as="points" />
          </mxGeometry>
        </mxCell>
        <mxCell id="4dj_SRw2docza1XH2Kyc-17" value="" style="endArrow=none;html=1;rounded=0;entryX=0.5;entryY=1;entryDx=0;entryDy=0;" edge="1" parent="1" target="4dj_SRw2docza1XH2Kyc-14">
          <mxGeometry width="50" height="50" relative="1" as="geometry">
            <mxPoint x="150" y="-380" as="sourcePoint" />
            <mxPoint x="160" y="-420" as="targetPoint" />
            <Array as="points" />
          </mxGeometry>
        </mxCell>
        <mxCell id="4dj_SRw2docza1XH2Kyc-18" value="" style="endArrow=none;html=1;rounded=0;entryX=0.5;entryY=1;entryDx=0;entryDy=0;" edge="1" parent="1">
          <mxGeometry width="50" height="50" relative="1" as="geometry">
            <mxPoint x="180" y="-380" as="sourcePoint" />
            <mxPoint x="250" y="-420" as="targetPoint" />
            <Array as="points" />
          </mxGeometry>
        </mxCell>
        <mxCell id="4dj_SRw2docza1XH2Kyc-19" value="" style="endArrow=none;html=1;rounded=0;exitX=0;exitY=0.5;exitDx=0;exitDy=0;" edge="1" parent="1" source="L-ztDhkG5EPIh8WO4SSl-1">
          <mxGeometry width="50" height="50" relative="1" as="geometry">
            <mxPoint x="137.5" y="-332" as="sourcePoint" />
            <mxPoint x="57.5" y="-362" as="targetPoint" />
            <Array as="points">
              <mxPoint x="57.5" y="-362" />
            </Array>
          </mxGeometry>
        </mxCell>
        <mxCell id="4dj_SRw2docza1XH2Kyc-21" value="" style="endArrow=none;html=1;rounded=0;" edge="1" parent="1">
          <mxGeometry width="50" height="50" relative="1" as="geometry">
            <mxPoint x="110" y="-319" as="sourcePoint" />
            <mxPoint x="110" y="-319" as="targetPoint" />
            <Array as="points">
              <mxPoint x="70" y="-280" />
            </Array>
          </mxGeometry>
        </mxCell>
        <mxCell id="4dj_SRw2docza1XH2Kyc-22" value="zipcode" style="ellipse;whiteSpace=wrap;html=1;" vertex="1" parent="1">
          <mxGeometry x="257.5" y="-400" width="90" height="30" as="geometry" />
        </mxCell>
        <mxCell id="4dj_SRw2docza1XH2Kyc-23" value="city" style="ellipse;whiteSpace=wrap;html=1;" vertex="1" parent="1">
          <mxGeometry x="5" y="-430" width="90" height="30" as="geometry" />
        </mxCell>
        <mxCell id="4dj_SRw2docza1XH2Kyc-24" value="" style="endArrow=none;html=1;rounded=0;entryX=0;entryY=0.5;entryDx=0;entryDy=0;exitX=1;exitY=0.25;exitDx=0;exitDy=0;" edge="1" parent="1" source="L-ztDhkG5EPIh8WO4SSl-1" target="4dj_SRw2docza1XH2Kyc-22">
          <mxGeometry width="50" height="50" relative="1" as="geometry">
            <mxPoint x="190" y="-370" as="sourcePoint" />
            <mxPoint x="260" y="-410" as="targetPoint" />
            <Array as="points" />
          </mxGeometry>
        </mxCell>
        <mxCell id="4dj_SRw2docza1XH2Kyc-25" value="" style="endArrow=none;html=1;rounded=0;entryX=0.691;entryY=0.96;entryDx=0;entryDy=0;entryPerimeter=0;exitX=0.393;exitY=0.028;exitDx=0;exitDy=0;exitPerimeter=0;" edge="1" parent="1" source="L-ztDhkG5EPIh8WO4SSl-1" target="4dj_SRw2docza1XH2Kyc-23">
          <mxGeometry width="50" height="50" relative="1" as="geometry">
            <mxPoint x="110" y="-380" as="sourcePoint" />
            <mxPoint x="69" y="-402" as="targetPoint" />
            <Array as="points" />
          </mxGeometry>
        </mxCell>
      </root>
    </mxGraphModel>
  </diagram>
</mxfile>
